<svg xmlns="http://www.w3.org/2000/svg" fill="none" style="max-width:488px;max-height:385px" viewBox="0 0 488 385">
  <g class="ApiFig1_bottom__XigQ9 ApiFig1_bottomActive__y8pRx">
    <path fill="#07080A" d="M324.845 358.52c-3.83 2.213-10.045 2.211-13.87-.005L48.5498 206.477l-13.8444-8.021c-1.877-1.088-2.8292-2.506-2.8571-3.929v24c.0279 1.423.9801 2.841 2.8571 3.929L310.975 382.515c3.825 2.216 10.04 2.218 13.87.005l158.908-91.808c2.05-1.184 3.001-2.763 2.852-4.314v-23.369c-.129 1.341-1.08 2.659-2.852 3.683l-13.849 8.001-145.059 83.807Z"/>
    <path fill="#07080A" d="M483.753 258.715 207.168 98.9016c-3.826-2.2106-10.032-2.2113-13.859-.0016L34.7174 190.463c-1.8846 1.088-2.8411 2.509-2.8691 3.935v.129c.0279 1.423.9801 2.841 2.8571 3.929l13.8444 8.021L193.309 122.9c3.827-2.21 10.033-2.209 13.859.002l262.736 151.811 13.849-8.001c1.772-1.024 2.723-2.342 2.852-3.683v-.631c-.129-1.34-1.079-2.658-2.852-3.683Z"/>
    <path fill="#07080A" d="M310.975 358.515c3.825 2.216 10.04 2.218 13.87.005l145.059-83.807-262.736-151.811c-3.826-2.211-10.032-2.212-13.859-.002L48.5498 206.477 310.975 358.515Z"/>
    <path stroke="#545454" stroke-dasharray="3 1" stroke-width=".5" d="m34.7054 198.456 13.8444 8.021m-13.8444-8.021c-1.877-1.088-2.8292-2.506-2.8571-3.929m2.8571 3.929v24M310.975 358.515c3.825 2.216 10.04 2.218 13.87.005m-13.87-.005L48.5498 206.477M310.975 358.515v24m13.87-23.995 145.059-83.807M324.845 358.52v24m158.908-115.808-13.849 8.001m13.849-8.001c1.772-1.024 2.723-2.342 2.852-3.683m-2.852 3.683v24M34.7054 222.456 310.975 382.515M34.7054 222.456c-1.877-1.088-2.8292-2.506-2.8571-3.929v-24M310.975 382.515c3.825 2.216 10.04 2.218 13.87.005m0 0 158.908-91.808m0 0c2.05-1.184 3.001-2.763 2.852-4.314v-23.369m0-.631c-.129-1.34-1.079-2.658-2.852-3.683L207.168 98.9016c-3.826-2.2106-10.032-2.2113-13.859-.0016L34.7174 190.463c-1.8846 1.088-2.8411 2.509-2.8691 3.935m454.7567 68v.631m0-.631c.02.211.02.421 0 .631M31.8483 194.398v.129m0-.129c-.0009.043-.0009.086 0 .129m16.7015 11.95L193.309 122.9c3.827-2.21 10.033-2.209 13.859.002l262.736 151.811"/>
    <path fill="#07090B" d="M324.845 358.52c-3.83 2.213-10.045 2.211-13.87-.005L48.5498 206.477l-13.8444-8.021c-1.877-1.088-2.8292-2.506-2.8571-3.929v24c.0279 1.423.9801 2.841 2.8571 3.929L310.975 382.515c3.825 2.216 10.04 2.218 13.87.005l158.908-91.807c2.05-1.185 3.001-2.764 2.852-4.314v-23.37c-.129 1.341-1.08 2.659-2.852 3.684l-13.849 8-145.059 83.807Z"/>
    <path stroke="#545454" stroke-dasharray="3 1" stroke-width=".5" d="M34.7174 190.463c-1.8846 1.088-2.8411 2.509-2.8691 3.935m2.8571 4.058 13.8444 8.021L310.975 358.515M34.7054 198.456c-1.877-1.088-2.8292-2.506-2.8571-3.929m2.8571 3.929v24M310.975 358.515c3.825 2.216 10.04 2.218 13.87.005m-13.87-.005v24m13.87-23.995 145.059-83.807 13.849-8M324.845 358.52v24m158.908-123.804c1.773 1.024 2.723 2.342 2.852 3.682m-2.852 4.315c1.772-1.025 2.723-2.343 2.852-3.684m-2.852 3.684v24M34.7054 222.456 310.975 382.515M34.7054 222.456c-1.877-1.088-2.8292-2.506-2.8571-3.929v-24M310.975 382.515c3.825 2.216 10.04 2.218 13.87.005m0 0 158.908-91.807m0 0c2.05-1.185 3.001-2.764 2.852-4.314v-23.37m0-.631v.631m0-.631c.02.211.02.421 0 .631M31.8483 194.398v.129m0-.129c-.0009.043-.0009.086 0 .129"/>
  </g>
  <g class="middle">
    <path fill="#02193B" d="M324.845 317.52c-3.83 2.213-10.045 2.211-13.87-.005L34.7054 157.456c-1.1118-.644-1.8991-1.404-2.3621-2.213-.3186-.556-.4836-1.136-.495-1.716v3c.0279 1.423.9801 2.841 2.8571 3.929L310.975 320.515c3.825 2.216 10.04 2.218 13.87.005l158.908-91.808c2.05-1.184 3.001-2.763 2.852-4.314v-2.369c-.047.485-.201.968-.463 1.434-.462.823-1.258 1.596-2.389 2.249L324.845 317.52Z"/>
    <path fill="#02193B" d="M483.753 217.715 207.168 57.9016c-3.826-2.2106-10.032-2.2113-13.859-.0016L34.7174 149.463c-1.8846 1.088-2.8411 2.509-2.8691 3.935v.129c.0114.58.1764 1.16.495 1.716.463.809 1.2503 1.569 2.3621 2.213L310.975 317.515c3.825 2.216 10.04 2.218 13.87.005l158.908-91.808c1.131-.653 1.927-1.426 2.389-2.249.262-.466.416-.949.463-1.434v-.631c-.129-1.34-1.079-2.658-2.852-3.683Z"/>
    <path stroke="#143CA3" stroke-width=".5" d="M34.7054 157.456 310.975 317.515M34.7054 157.456c-1.1118-.644-1.8991-1.404-2.3621-2.213-.3186-.556-.4836-1.136-.495-1.716m2.8571 3.929v3M310.975 317.515c3.825 2.216 10.04 2.218 13.87.005m-13.87-.005v3m13.87-2.995 158.908-91.808M324.845 317.52v3m158.908-94.808c1.131-.653 1.927-1.426 2.389-2.249.262-.466.416-.949.463-1.434m-2.852 3.683v3M34.7054 160.456 310.975 320.515M34.7054 160.456c-1.877-1.088-2.8292-2.506-2.8571-3.929v-3M310.975 320.515c3.825 2.216 10.04 2.218 13.87.005m0 0 158.908-91.808m0 0c2.05-1.184 3.001-2.763 2.852-4.314v-2.369m0-.631c-.129-1.34-1.079-2.658-2.852-3.683L207.168 57.9016c-3.826-2.2106-10.032-2.2113-13.859-.0016L34.7174 149.463c-1.8846 1.088-2.8411 2.509-2.8691 3.935m454.7567 68c.02.211.02.421 0 .631m0-.631v.631M31.8483 153.398c-.0009.043-.0009.086 0 .129m0-.129v.129"/>
    <g stroke-width=".5" opacity=".75">
      <rect width="9.88173" height="9.88173" x="-1e-8" y=".25" stroke="#63A1FF" rx="3.64315" transform="matrix(.86603 .5 -.86603 .5 150.388 94.1543)"/>
      <rect width="45.5689" height="5.98858" x="-1e-8" y=".25" stroke="#63A1FF" rx="2.99429" transform="matrix(.86603 .5 -.86603 .5 162.751 103.238)"/>
      <rect width="19.6146" height="5.98858" x="-1e-8" y=".25" stroke="#143CA3" rx="2.99429" transform="matrix(.86603 .5 -.86603 .5 207.705 129.192)"/>
      <rect width="18.9657" height="5.98858" x="-1e-8" y=".25" stroke="#143CA3" rx="2.99429" transform="matrix(.86603 .5 -.86603 .5 402.694 241.77)"/>
      <rect width="9.88173" height="9.88173" x="-1e-8" y=".25" stroke="#63A1FF" rx="3.64315" transform="matrix(.86603 .5 -.86603 .5 127.911 107.132)"/>
      <rect width="45.5689" height="5.98858" x="-1e-8" y=".25" stroke="#63A1FF" rx="2.99429" transform="matrix(.86603 .5 -.86603 .5 140.274 116.216)"/>
      <rect width="19.6146" height="5.98858" x="-1e-8" y=".25" stroke="#143CA3" rx="2.99429" transform="matrix(.86603 .5 -.86603 .5 185.228 142.17)"/>
      <rect width="18.9657" height="5.98858" x="-1e-8" y=".25" stroke="#143CA3" rx="2.99429" transform="matrix(.86603 .5 -.86603 .5 380.217 254.747)"/>
      <rect width="9.88173" height="9.88173" x="-1e-8" y=".25" stroke="#63A1FF" rx="3.64315" transform="matrix(.86603 .5 -.86603 .5 105.434 120.109)"/>
      <rect width="45.5689" height="5.98858" x="-1e-8" y=".25" stroke="#63A1FF" rx="2.99429" transform="matrix(.86603 .5 -.86603 .5 117.797 129.193)"/>
      <rect width="19.6146" height="5.98858" x="-1e-8" y=".25" stroke="#143CA3" rx="2.99429" transform="matrix(.86603 .5 -.86603 .5 162.751 155.147)"/>
      <rect width="18.9657" height="5.98858" x="-1e-8" y=".25" stroke="#143CA3" rx="2.99429" transform="matrix(.86603 .5 -.86603 .5 357.739 267.724)"/>
      <rect width="9.88173" height="9.88173" x="-1e-8" y=".25" stroke="#63A1FF" rx="3.64315" transform="matrix(.86603 .5 -.86603 .5 82.9572 133.086)"/>
      <rect width="45.5689" height="5.98858" x="-1e-8" y=".25" stroke="#63A1FF" rx="2.99429" transform="matrix(.86603 .5 -.86603 .5 95.3195 142.17)"/>
      <rect width="19.6146" height="5.98858" x="-1e-8" y=".25" stroke="#143CA3" rx="2.99429" transform="matrix(.86603 .5 -.86603 .5 140.274 168.124)"/>
      <rect width="18.9657" height="5.98858" x="-1e-8" y=".25" stroke="#143CA3" rx="2.99429" transform="matrix(.86603 .5 -.86603 .5 335.262 280.701)"/>
      <rect width="9.88173" height="9.88173" x="-1e-8" y=".25" stroke="#63A1FF" rx="3.64315" transform="matrix(.86603 .5 -.86603 .5 60.4802 146.063)"/>
      <rect width="45.5689" height="5.98858" x="-1e-8" y=".25" stroke="#63A1FF" rx="2.99429" transform="matrix(.86603 .5 -.86603 .5 72.8425 155.147)"/>
      <rect width="19.6146" height="5.98858" x="-1e-8" y=".25" stroke="#143CA3" rx="2.99429" transform="matrix(.86603 .5 -.86603 .5 117.797 181.101)"/>
      <rect width="18.9657" height="5.98858" x="-1e-8" y=".25" stroke="#143CA3" rx="2.99429" transform="matrix(.86603 .5 -.86603 .5 312.785 293.678)"/>
    </g>
  </g>
  <g class="ApiFig1_focus__4Hnww ApiFig1_focusActive__tvwAn">
    <path fill="#63A1FF" d="M170.722 62.1264c2.869-1.6568 7.522-1.6568 10.392 0L455.057 220.287c1.457.842 2.174 1.948 2.152 3.051-.018.862-.488 1.721-1.41 2.449-.221.175-.469.343-.742.5l-12.085 6.978c-2.87 1.656-7.523 1.656-10.392 0L158.637 75.1036c-.274-.1579-.521-.3252-.743-.5-.931-.7359-1.401-1.606-1.409-2.4771-.011-1.0934.707-2.1887 2.152-3.0229l12.085-6.9772Z"/>
    <path fill="#3D5DCB" d="m455.057 226.287-12.085 6.978c-2.87 1.656-7.523 1.656-10.392 0L158.637 75.1036c-.274-.1579-.521-.3252-.743-.5-.931-.7359-1.401-1.606-1.409-2.4771v1.9513c-.012 1.0944.705 2.1908 2.152 3.0258L432.58 235.265c2.869 1.656 7.522 1.656 10.392 0l12.085-6.978c1.413-.815 2.13-1.88 2.152-2.95v-1.999c-.018.862-.488 1.721-1.41 2.449-.221.175-.469.343-.742.5Z"/>
    <path stroke="#143CA3" stroke-width=".5" d="M158.637 75.1036 432.58 233.265M158.637 75.1036c-.274-.1579-.521-.3252-.743-.5-.931-.7359-1.401-1.606-1.409-2.4771m2.152 2.9771v2M442.972 233.265l12.085-6.978c.273-.157.521-.325.742-.5.922-.728 1.392-1.587 1.41-2.449m-14.237 9.927c-2.87 1.656-7.523 1.656-10.392 0m10.392 0v2m-10.392-2v2M158.637 77.1036 432.58 235.265M158.637 77.1036c-1.447-.835-2.164-1.9314-2.152-3.0258v-1.9513M442.972 235.265l12.085-6.978c1.413-.815 2.13-1.88 2.152-2.95v-1.999m-14.237 11.927c-2.87 1.656-7.523 1.656-10.392 0m24.629-11.927c.022-1.103-.695-2.209-2.152-3.051L181.114 62.1264c-2.87-1.6568-7.523-1.6568-10.392 0l-12.085 6.9772c-1.445.8342-2.163 1.9295-2.152 3.0229"/>
    <rect width="9.88173" height="9.88173" x="-1e-8" y=".25" stroke="#1456A3" stroke-width=".5" rx="3.64315" transform="matrix(.86603 .5 -.86603 .5 174.691 66.0088)"/>
    <rect width="45.5689" height="5.98858" x="-1e-8" y=".25" stroke="#1456A3" stroke-width=".5" rx="2.99429" transform="matrix(.86603 .5 -.86603 .5 187.053 75.0928)"/>
    <rect width="30.6452" height="5.98858" x="-1e-8" y=".25" stroke="#3C6AC5" stroke-width=".5" rx="2.99429" transform="matrix(.86603 .5 -.86603 .5 232.008 101.047)"/>
    <rect width="18.9657" height="5.98858" x="-1e-8" y=".25" stroke="#3C6AC5" stroke-width=".5" rx="2.99429" transform="matrix(.86603 .5 -.86603 .5 426.281 213.211)"/>
  </g>
  <g class="ApiFig1_selectedItem__Lchoi ApiFig1_label__fJyyX ApiFig1_labelActive__wEl2m">
    <path fill="#08090C" d="M366 52.2432h108v36H366z"/>
    <path fill="#525252" d="M413.715 199.065c-.737 0-1.333.597-1.333 1.333 0 .737.596 1.333 1.333 1.333.736 0 1.333-.596 1.333-1.333 0-.736-.597-1.333-1.333-1.333Zm-.25-115.3218V200.398h.5V83.7432h-.5Z"/>
    <path fill="#6A6B6C" d="M379.35 71.9232c.06.32.173.6033.34.85.167.2466.38.4366.64.57.267.1333.57.2.91.2.28 0 .527-.04.74-.12.22-.0867.39-.21.51-.37.127-.1667.19-.3667.19-.6 0-.3534-.157-.6467-.47-.88-.313-.24-.807-.4567-1.48-.65-.62-.1734-1.127-.42-1.52-.74s-.59-.74-.59-1.26c0-.3867.097-.7267.29-1.02.193-.2934.457-.52.79-.68.34-.16.72-.24 1.14-.24.46 0 .877.0966 1.25.29.38.1933.683.4633.91.81.227.34.363.7233.41 1.15l-.88.06c-.04-.2934-.14-.5534-.3-.78-.153-.2267-.353-.4-.6-.52-.247-.1267-.517-.19-.81-.19-.373 0-.687.1033-.94.31-.253.2066-.38.4766-.38.81 0 .26.077.4733.23.64.16.1666.353.2966.58.39.227.0933.537.1966.93.31.02 0 .05.01.09.03.673.2 1.213.4733 1.62.82.407.34.61.76.61 1.26 0 .4133-.113.7733-.34 1.08-.227.3-.523.5266-.89.68-.367.1533-.753.23-1.16.23-.48 0-.92-.1-1.32-.3-.393-.2-.713-.48-.96-.84s-.387-.7734-.42-1.24l.88-.06Zm10.506-4.78v.82h-3.61v2.32h3.49v.8h-3.49v2.34h3.69v.82h-4.53v-7.1h4.45Zm2.046 0h.84v6.7l-.43-.42h4.19v.82h-4.6v-7.1Zm10.946 0v.82h-3.61v2.32h3.49v.8h-3.49v2.34h3.69v.82h-4.53v-7.1h4.45Zm6.796 4.87c-.14.7466-.43 1.3333-.87 1.76-.44.42-.99.63-1.65.63-.573 0-1.07-.15-1.49-.45-.413-.3-.726-.7267-.94-1.28-.213-.5534-.32-1.21-.32-1.97 0-.7667.107-1.4267.32-1.98.214-.56.527-.99.94-1.29.42-.3.917-.45 1.49-.45.62 0 1.144.1966 1.57.59.427.3933.724.94.89 1.64l-.9.06c-.126-.4667-.323-.8267-.59-1.08-.266-.26-.59-.39-.97-.39-.4 0-.74.1133-1.02.34-.273.2266-.483.5566-.63.99-.146.4333-.22.9566-.22 1.57 0 .6133.074 1.1366.22 1.57.147.4266.357.7533.63.98.28.22.62.33 1.02.33.414 0 .76-.14 1.04-.42.287-.2867.484-.69.59-1.21l.89.06Zm6.426-4.05h-2.17v6.28h-.84v-6.28h-2.17v-.82h5.18v.82Zm6.267-.82v.82h-3.61v2.32h3.49v.8h-3.49v2.34h3.69v.82h-4.53v-7.1h4.45Zm3.616 0c.66 0 1.23.14 1.71.42.486.2733.86.6766 1.12 1.21.26.5333.39 1.1766.39 1.93 0 .7466-.127 1.3866-.38 1.92-.254.5266-.617.93-1.09 1.21-.474.2733-1.037.41-1.69.41h-1.78v-7.1h1.72Zm0 6.28c.753 0 1.33-.2267 1.73-.68.406-.46.61-1.14.61-2.04 0-.9067-.2-1.59-.6-2.05-.4-.46-.98-.69-1.74-.69h-.88v5.46h.88Zm15.552-5.46h-1.62v5.46h1.68v.82h-4.2v-.82h1.68v-5.46h-1.62v-.82h4.08v.82Zm7.046 0h-2.17v6.28h-.84v-6.28h-2.17v-.82h5.18v.82Zm6.266-.82v.82h-3.61v2.32h3.49v.8h-3.49v2.34h3.69v.82h-4.53v-7.1h4.45Zm3.126 0 1.2 6.15h-.38l1.2-6.15h1.35v7.1h-.84v-6.44h.05l-1.21 5.94h-.72l-1.21-5.94h.05v6.44h-.84v-7.1h1.35Z"/>
  </g>
  <g class="ApiFig1_top__gJ6NC ApiFig1_topActive__VxzQW">
    <path fill="#07080A" d="M47.2666 86.2432 338.06 254.133l-12.549 7.245c-3.826 2.209-10.03 2.209-13.857 0L34.7174 101.488c-1.0166-.586-1.7631-1.27-2.2395-1.9995-.5421-.8297-.7345-1.7182-.5772-2.5897.2248-1.2454 1.1637-2.4559 2.8167-3.4103l12.5492-7.2453Z"/>
    <path fill="#07080A" d="m338.06 254.133-12.549 7.245c-3.826 2.209-10.03 2.209-13.857 0L34.7174 101.488c-1.0166-.586-1.7631-1.27-2.2395-1.9995-.3555.5445-.5606 1.1135-.6153 1.6865l-.0051.568c.1057 1.362 1.059 2.706 2.8599 3.745l276.9366 159.89c3.827 2.209 10.031 2.209 13.857 0l12.549-7.245v-4Z"/>
    <path stroke="#545454" stroke-width=".5" d="M338.06 254.133 47.2666 86.2432l-12.5492 7.2453c-1.653.9544-2.5919 2.1649-2.8167 3.4103M338.06 254.133l-12.549 7.245c-3.826 2.209-10.03 2.209-13.857 0L34.7174 101.488c-1.0166-.586-1.7631-1.27-2.2395-1.9995M338.06 254.133v4l-12.549 7.245c-3.826 2.209-10.03 2.209-13.857 0L34.7174 105.488c-1.8009-1.039-2.7542-2.383-2.8599-3.745m0 0 .0051-.568m-.0051.568c-.0146-.189-.013-.379.0051-.568m.0381-4.2762c-.1573.8715.0351 1.76.5772 2.5897m-.5772-2.5897-.0381 4.2762m.6153-1.6865c-.3555.5445-.5606 1.1135-.6153 1.6865"/>
    <path fill="#0E0F11" d="M177.848 14.8321 468.641 182.722v-4L177.848 10.8321v4Z"/>
    <path fill="#07080A" d="M484.112 161.79 207.175 1.90002c-3.826-2.20914-10.03-2.209141-13.857 0l-15.47 8.93208L468.641 178.722l15.471-8.932c1.017-.587 1.763-1.271 2.24-2 .42-.643.63-1.322.63-2 0-1.448-.957-2.896-2.87-4Z"/>
    <path stroke="#545454" stroke-width=".5" d="m468.641 178.722 15.471-8.932c1.017-.587 1.763-1.271 2.24-2m-17.711 10.932v4m0-4L177.848 10.8321m0 0 15.47-8.93208c3.827-2.209141 10.031-2.20914 13.857 0L484.112 161.79c1.913 1.104 2.87 2.552 2.87 4M177.848 10.8321v4L468.641 182.722m0 0 15.471-8.932c2.81-1.622 3.556-3.985 2.24-6m.63-2v4.453m0-4.453c0 .678-.21 1.357-.63 2"/>
    <rect width="15.0726" height="15.0726" x="-1e-8" y=".25" stroke="#424242" stroke-width=".5" rx="3.64315" transform="matrix(.86603 .5 -.86603 .5 201.55 4.36816)"/>
    <rect width="74.7675" height="5.98858" x="-1e-8" y=".25" stroke="#424242" stroke-width=".5" rx="2.99429" transform="matrix(.86603 .5 -.86603 .5 218.972 18.9678)"/>
    <path fill="#0E0F11" d="M324.845 261.52c-3.83 2.213-10.045 2.211-13.87-.005L34.7054 101.456c-1.1118-.644-1.8991-1.404-2.3621-2.2128-.3186-.5565-.4836-1.1358-.495-1.7159v3.9997c.0279 1.423.9801 2.841 2.8571 3.929L310.975 265.515c3.825 2.216 10.04 2.218 13.87.005l158.908-91.808c2.05-1.184 3.001-2.763 2.852-4.314v-3.369c-.047.485-.201.968-.463 1.434-.462.823-1.258 1.596-2.389 2.249L324.845 261.52ZM177.848 14.8184v-3.9918L47.2699 86.2157l3.7884 2.1686L177.848 14.8184Z"/>
    <path stroke="#545454" stroke-width=".5" d="M34.7054 101.456 310.975 261.515M34.7054 101.456c-1.1118-.644-1.8991-1.404-2.3621-2.2128-.3186-.5565-.4836-1.1358-.495-1.7159m2.8571 3.9287v4M310.975 261.515c3.825 2.216 10.04 2.218 13.87.005m-13.87-.005v4m13.87-3.995 158.908-91.808M324.845 261.52v4m158.908-95.808c1.131-.653 1.927-1.426 2.389-2.249.262-.466.416-.949.463-1.434m-2.852 3.683v4M34.7054 105.456 310.975 265.515M34.7054 105.456c-1.877-1.088-2.8292-2.506-2.8571-3.929v-3.9997M310.975 265.515c3.825 2.216 10.04 2.218 13.87.005m0 0 158.908-91.808m0 0c2.05-1.184 3.001-2.763 2.852-4.314v-3.369m0-.631c-.129-1.34-1.079-2.658-2.852-3.683L207.168 1.90161c-1.291-.74591-2.853-1.240211-4.503-1.482897-3.24-.4765621-6.82.017155-9.356 1.481307l-15.461 8.92658M486.605 165.398c.02.211.02.421 0 .631m0-.631v.631M31.8483 97.3984c.028-1.4262.9845-2.8475 2.8691-3.9356l12.5525-7.2471M31.8483 97.3984c-.0009.043-.0009.086 0 .1289m0-.1289v.1289M177.848 10.8266v3.9918L51.0583 88.3843l-3.7884-2.1686M177.848 10.8266 47.2699 86.2157"/>
    <rect width="9.90695" height="9.88173" x="-1e-8" y=".25" stroke="#424242" stroke-width=".5" rx="2.75" transform="matrix(.86603 .5 -.86603 .5 49.0544 93.3682)"/>
    <rect width="43.2668" height="6.5" x="-1e-8" y=".25" stroke="#424242" stroke-width=".5" rx="3.25" transform="matrix(.86603 .5 -.86603 .5 283.17 231.229)"/>
    <rect width="43.7295" height="6.5" x="-1e-8" y=".25" stroke="#424242" stroke-width=".5" rx="3.25" transform="matrix(.86603 .5 -.86603 .5 235.623 203.321)"/>
  </g>
  <g class="ApiFig1_listContent__CNRZH ApiFig1_label__fJyyX ApiFig1_labelActive__wEl2m">
    <path fill="#08090C" d="M98 316.243h102v36H98z"/>
    <path fill="#494949" d="M143.232 219.684c.737 0 1.334-.597 1.334-1.333 0-.737-.597-1.334-1.334-1.334-.736 0-1.333.597-1.333 1.334 0 .736.597 1.333 1.333 1.333Zm.25 104.841V218.351h-.5v106.174h.5Z"/>
    <path fill="#6A6B6C" d="M110.91 331.143h.84v6.7l-.43-.42h4.19v.82h-4.6v-7.1Zm10.626.82h-1.62v5.46h1.68v.82h-4.2v-.82h1.68v-5.46h-1.62v-.82h4.08v.82Zm2.806 3.96c.06.32.174.603.34.85.167.247.38.437.64.57.267.133.57.2.91.2.28 0 .527-.04.74-.12.22-.087.39-.21.51-.37.127-.167.19-.367.19-.6 0-.353-.156-.647-.47-.88-.313-.24-.806-.457-1.48-.65-.62-.173-1.126-.42-1.52-.74-.393-.32-.59-.74-.59-1.26 0-.387.097-.727.29-1.02.194-.293.457-.52.79-.68.34-.16.72-.24 1.14-.24.46 0 .877.097 1.25.29.38.193.684.463.91.81.227.34.364.723.41 1.15l-.88.06c-.04-.293-.14-.553-.3-.78-.153-.227-.353-.4-.6-.52-.246-.127-.516-.19-.81-.19-.373 0-.686.103-.94.31-.253.207-.38.477-.38.81 0 .26.077.473.23.64.16.167.354.297.58.39.227.093.537.197.93.31.02 0 .05.01.09.03.674.2 1.214.473 1.62.82.407.34.61.76.61 1.26 0 .413-.113.773-.34 1.08-.226.3-.523.527-.89.68-.366.153-.753.23-1.16.23-.48 0-.92-.1-1.32-.3-.393-.2-.713-.48-.96-.84-.246-.36-.386-.773-.42-1.24l.88-.06Zm10.736-3.96h-2.17v6.28h-.84v-6.28h-2.17v-.82h5.18v.82Zm13.062 4.05c-.14.747-.43 1.333-.87 1.76-.44.42-.99.63-1.65.63-.573 0-1.07-.15-1.49-.45-.413-.3-.726-.727-.94-1.28-.213-.553-.32-1.21-.32-1.97 0-.767.107-1.427.32-1.98.214-.56.527-.99.94-1.29.42-.3.917-.45 1.49-.45.62 0 1.144.197 1.57.59.427.393.724.94.89 1.64l-.9.06c-.126-.467-.323-.827-.59-1.08-.266-.26-.59-.39-.97-.39-.4 0-.74.113-1.02.34-.273.227-.483.557-.63.99-.146.433-.22.957-.22 1.57 0 .613.074 1.137.22 1.57.147.427.357.753.63.98.28.22.62.33 1.02.33.414 0 .76-.14 1.04-.42.287-.287.484-.69.59-1.21l.89.06Zm3.837 2.39c-.547 0-1.017-.15-1.41-.45-.387-.3-.684-.727-.89-1.28-.207-.56-.31-1.217-.31-1.97 0-.76.103-1.42.31-1.98.206-.56.503-.99.89-1.29.393-.3.863-.45 1.41-.45.546 0 1.013.15 1.4.45.393.3.693.73.9 1.29.206.56.31 1.22.31 1.98 0 .753-.104 1.41-.31 1.97-.207.553-.507.98-.9 1.28-.387.3-.854.45-1.4.45Zm0-.82c.36 0 .67-.117.93-.35.266-.233.466-.567.6-1 .14-.433.21-.943.21-1.53 0-.593-.07-1.107-.21-1.54-.134-.44-.334-.777-.6-1.01-.26-.233-.57-.35-.93-.35-.36 0-.674.117-.94.35-.26.233-.46.57-.6 1.01-.134.433-.2.947-.2 1.54 0 .587.066 1.097.2 1.53.14.433.34.767.6 1 .266.233.58.35.94.35Zm5.476-6.44 2.39 6.04v-6.04h.84v7.1h-1.29l-2.29-5.84v5.84h-.84v-7.1h1.19Zm10.106.82h-2.17v6.28h-.84v-6.28h-2.17v-.82h5.18v.82Zm6.266-.82v.82h-3.61v2.32h3.49v.8h-3.49v2.34h3.69v.82h-4.53v-7.1h4.45Zm3.116 0 2.39 6.04v-6.04h.84v7.1h-1.29l-2.29-5.84v5.84h-.84v-7.1h1.19Zm10.106.82h-2.17v6.28h-.84v-6.28h-2.17v-.82h5.18v.82Z"/>
  </g>
  <g class="ApiFig1_searchBar__s05nU ApiFig1_label__fJyyX ApiFig1_labelActive__wEl2m">
    <path fill="#08090C" d="M281 3.24316h89v36h-89z"/>
    <path fill="#07080A" d="M326.855 35.4766v43.8052h-5.99999V35.4766z"/>
    <path fill="#525252" d="M323.855 78.948c-.736 0-1.333.5969-1.333 1.3333 0 .7364.597 1.3333 1.333 1.3333.737 0 1.334-.5969 1.334-1.3333 0-.7364-.597-1.3333-1.334-1.3333Zm-.25-41.4959v42.8292h.5V37.4521h-.5Z"/>
    <path fill="#6A6B6C" d="M294.35 22.9232c.06.32.173.6033.34.85.167.2466.38.4366.64.57.267.1333.57.2.91.2.28 0 .527-.04.74-.12.22-.0867.39-.21.51-.37.127-.1667.19-.3667.19-.6 0-.3534-.157-.6467-.47-.88-.313-.24-.807-.4567-1.48-.65-.62-.1734-1.127-.42-1.52-.74s-.59-.74-.59-1.26c0-.3867.097-.7267.29-1.02.193-.2934.457-.52.79-.68.34-.16.72-.24 1.14-.24.46 0 .877.0966 1.25.29.38.1933.683.4633.91.81.227.34.363.7233.41 1.15l-.88.06c-.04-.2934-.14-.5534-.3-.78-.153-.2267-.353-.4-.6-.52-.247-.1267-.517-.19-.81-.19-.373 0-.687.1033-.94.31-.253.2066-.38.4766-.38.81 0 .26.077.4733.23.64.16.1666.353.2966.58.39.227.0933.537.1966.93.31.02 0 .05.01.09.03.673.2 1.213.4733 1.62.82.407.34.61.76.61 1.26 0 .4133-.113.7733-.34 1.08-.227.3-.523.5266-.89.68-.367.1533-.753.23-1.16.23-.48 0-.92-.1-1.32-.3-.393-.2-.713-.48-.96-.84s-.387-.7734-.42-1.24l.88-.06Zm10.506-4.78v.82h-3.61v2.32h3.49v.8h-3.49v2.34h3.69v.82h-4.53v-7.1h4.45Zm3.576 0h1.12l2.17 7.1h-.86l-1.87-6.36-1.87 6.36h-.86l2.17-7.1Zm-1.08 5.07.29-.77h2.7l.29.77h-3.28Zm8.106-5.07c.754 0 1.344.1933 1.77.58.434.38.65.9.65 1.56 0 .3133-.073.6-.22.86-.14.26-.326.4666-.56.62-.226.1533-.463.2366-.71.25l-.31-.12c.567 0 .974.0966 1.22.29.254.1866.404.51.45.97l.2 2.09h-.85l-.18-2.01c-.026-.3134-.16-.5334-.4-.66-.233-.1334-.613-.2-1.14-.2h-1.31v2.87h-.84v-7.1h2.23Zm0 3.41c.494 0 .874-.11 1.14-.33.267-.22.4-.54.4-.96 0-.4134-.133-.7334-.4-.96-.266-.2267-.646-.34-1.14-.34h-1.39v2.59h1.39Zm9.186 1.46c-.14.7466-.43 1.3333-.87 1.76-.44.42-.99.63-1.65.63-.573 0-1.07-.15-1.49-.45-.413-.3-.726-.7267-.94-1.28-.213-.5534-.32-1.21-.32-1.97 0-.7667.107-1.4267.32-1.98.214-.56.527-.99.94-1.29.42-.3.917-.45 1.49-.45.62 0 1.144.1966 1.57.59.427.3933.724.94.89 1.64l-.9.06c-.126-.4667-.323-.8267-.59-1.08-.266-.26-.59-.39-.97-.39-.4 0-.74.1133-1.02.34-.273.2266-.483.5566-.63.99-.146.4333-.22.9566-.22 1.57 0 .6133.074 1.1366.22 1.57.147.4266.357.7533.63.98.28.22.62.33 1.02.33.414 0 .76-.14 1.04-.42.287-.2867.484-.69.59-1.21l.89.06Zm1.546-4.87h.84v3.45l-.42-.34h3.74l-.42.34v-3.45h.84v7.1h-.84v-3.5l.42.34h-3.74l.42-.34v3.5h-.84v-7.1Zm13.073 0h1.95c.806 0 1.426.17 1.86.51.44.34.66.8266.66 1.46 0 .2866-.074.5433-.22.77-.14.2266-.337.4066-.59.54-.247.1266-.527.19-.84.19l-.01-.06c.6 0 1.076.1533 1.43.46.353.3.53.71.53 1.23 0 .6133-.217 1.1-.65 1.46-.434.36-1.024.54-1.77.54h-2.35v-7.1Zm2.35 6.28c.473 0 .846-.1034 1.12-.31.28-.2134.42-.5034.42-.87 0-.38-.134-.6734-.4-.88-.267-.2067-.647-.31-1.14-.31h-1.51v2.37h1.51Zm-.4-3.2c.526 0 .93-.0934 1.21-.28.286-.1934.43-.47.43-.83 0-.3667-.144-.65-.43-.85-.28-.2-.684-.3-1.21-.3h-1.11v2.26h1.11Zm6.196-3.08h1.12l2.17 7.1h-.86l-1.87-6.36-1.87 6.36h-.86l2.17-7.1Zm-1.08 5.07.29-.77h2.7l.29.77h-3.28Zm8.106-5.07c.753 0 1.343.1933 1.77.58.433.38.65.9.65 1.56 0 .3133-.073.6-.22.86-.14.26-.327.4666-.56.62-.227.1533-.463.2366-.71.25l-.31-.12c.567 0 .973.0966 1.22.29.253.1866.403.51.45.97l.2 2.09h-.85l-.18-2.01c-.027-.3134-.16-.5334-.4-.66-.233-.1334-.613-.2-1.14-.2h-1.31v2.87h-.84v-7.1h2.23Zm0 3.41c.493 0 .873-.11 1.14-.33.267-.22.4-.54.4-.96 0-.4134-.133-.7334-.4-.96-.267-.2267-.647-.34-1.14-.34h-1.39v2.59h1.39Z"/>
  </g>
  <g class="ApiFig1_label__fJyyX ApiFig1_labelActive__wEl2m">
    <path fill="#08090C" d="M0 20.2432h89v36H0z"/>
    <path fill="#07080A" d="M50 46v43.8052h-5.99999V46z"/>
    <path fill="#525252" d="M47 89.6667c-.7364 0-1.3333.5969-1.3333 1.3333 0 .7364.5969 1.3333 1.3333 1.3333.7364 0 1.3333-.5969 1.3333-1.3333 0-.7364-.5969-1.3333-1.3333-1.3333ZM46.75 56v35h.5V56h-.5Z"/>
    <path fill="#6A6B6C" d="M14.44 35.1432h1.12l2.17 7.1h-.86l-1.87-6.36-1.87 6.36h-.86l2.17-7.1Zm-1.08 5.07.29-.77h2.7l.29.77h-3.28Zm10.7961-.2c-.14.7466-.43 1.3333-.87 1.76-.44.42-.99.63-1.65.63-.5733 0-1.07-.15-1.49-.45-.4133-.3-.7267-.7267-.94-1.28-.2133-.5534-.32-1.21-.32-1.97 0-.7667.1067-1.4267.32-1.98.2133-.56.5267-.99.94-1.29.42-.3.9167-.45 1.49-.45.62 0 1.1433.1966 1.57.59.4267.3933.7233.94.89 1.64l-.9.06c-.1267-.4667-.3233-.8267-.59-1.08-.2667-.26-.59-.39-.97-.39-.4 0-.74.1133-1.02.34-.2733.2266-.4833.5566-.63.99-.1467.4333-.22.9566-.22 1.57 0 .6133.0733 1.1366.22 1.57.1467.4266.3567.7533.63.98.28.22.62.33 1.02.33.4133 0 .76-.14 1.04-.42.2867-.2867.4833-.69.59-1.21l.89.06Zm6.4261-4.05h-2.17v6.28h-.84v-6.28h-2.17v-.82h5.18v.82Zm5.9461 0h-1.62v5.46h1.68v.82h-4.2v-.82h1.68v-5.46h-1.62v-.82h4.08v.82Zm4.4561 6.44c-.5467 0-1.0167-.15-1.41-.45-.3867-.3-.6834-.7267-.89-1.28-.2067-.56-.31-1.2167-.31-1.97 0-.76.1033-1.42.31-1.98.2066-.56.5033-.99.89-1.29.3933-.3.8633-.45 1.41-.45.5466 0 1.0133.15 1.4.45.3933.3.6933.73.9 1.29.2066.56.31 1.22.31 1.98 0 .7533-.1034 1.41-.31 1.97-.2067.5533-.5067.98-.9 1.28-.3867.3-.8534.45-1.4.45Zm0-.82c.36 0 .67-.1167.93-.35.2666-.2334.4666-.5667.6-1 .14-.4334.21-.9434.21-1.53 0-.5934-.07-1.1067-.21-1.54-.1334-.44-.3334-.7767-.6-1.01-.26-.2334-.57-.35-.93-.35-.36 0-.6734.1166-.94.35-.26.2333-.46.57-.6 1.01-.1334.4333-.2.9466-.2 1.54 0 .5866.0666 1.0966.2 1.53.14.4333.34.7666.6 1 .2666.2333.58.35.94.35Zm5.4761-6.44 2.39 6.04v-6.04h.84v7.1h-1.29l-2.29-5.84v5.84h-.84v-7.1h1.19Zm11.8022 0h1.95c.8066 0 1.4266.17 1.86.51.44.34.66.8266.66 1.46 0 .2866-.0734.5433-.22.77-.14.2266-.3367.4066-.59.54-.2467.1266-.5267.19-.84.19l-.01-.06c.6 0 1.0766.1533 1.43.46.3533.3.53.71.53 1.23 0 .6133-.2167 1.1-.65 1.46-.4334.36-1.0234.54-1.77.54h-2.35v-7.1Zm2.35 6.28c.4733 0 .8466-.1034 1.12-.31.28-.2134.42-.5034.42-.87 0-.38-.1334-.6734-.4-.88-.2667-.2067-.6467-.31-1.14-.31h-1.51v2.37h1.51Zm-.4-3.2c.5266 0 .93-.0934 1.21-.28.2866-.1934.43-.47.43-.83 0-.3667-.1434-.65-.43-.85-.28-.2-.6834-.3-1.21-.3h-1.11v2.26h1.11Zm6.1961-3.08h1.12l2.17 7.1h-.86l-1.87-6.36-1.87 6.36h-.86l2.17-7.1Zm-1.08 5.07.29-.77h2.7l.29.77h-3.28Zm8.106-5.07c.7534 0 1.3434.1933 1.77.58.4334.38.65.9.65 1.56 0 .3133-.0733.6-.22.86-.14.26-.3266.4666-.56.62-.2266.1533-.4633.2366-.71.25l-.31-.12c.5667 0 .9734.0966 1.22.29.2534.1866.4034.51.45.97l.2 2.09h-.85l-.18-2.01c-.0266-.3134-.16-.5334-.4-.66-.2333-.1334-.6133-.2-1.14-.2h-1.31v2.87h-.84v-7.1h2.23Zm0 3.41c.4934 0 .8734-.11 1.14-.33.2667-.22.4-.54.4-.96 0-.4134-.1333-.7334-.4-.96-.2666-.2267-.6466-.34-1.14-.34h-1.39v2.59h1.39Z"/>
  </g>
</svg>
