<svg
    xmlns="http://www.w3.org/2000/svg"
    fill="none"
    viewBox="0 0 723 570"
    {...props}
  >
    <g clipPath="url(#a)">
      <path
        fill="#07080A"
        d="M481.57 530.34c-5.68 3.26-14.87 3.26-20.53 0L72.8 305.62l-20.48-11.86c-2.78-1.62-4.18-3.7-4.23-5.8v35.47c.05 2.1 1.45 4.2 4.23 5.8l408.73 236.55c5.65 3.28 14.84 3.28 20.52.01l235.1-135.67c3.03-1.77 4.44-4.1 4.23-6.39V389.2c-.2 1.99-1.61 3.94-4.23 5.44l-20.5 11.83-214.6 123.86v.02Z"
      />
      <path
        fill="#07080A"
        d="m716.67 382.82-409.2-236.17c-5.67-3.28-14.85-3.28-20.51-.01L52.29 281.96c-2.78 1.62-4.18 3.7-4.23 5.82v.2c.05 2.1 1.45 4.19 4.23 5.8l20.48 11.85 214.17-123.52c5.67-3.27 14.84-3.25 20.51 0l388.73 224.36 20.49-11.82c2.62-1.5 4.04-3.46 4.23-5.44v-.93c-.2-1.98-1.6-3.93-4.23-5.45Z"
      />
      <path
        fill="#07080A"
        d="M461.05 530.32c5.65 3.28 14.84 3.28 20.52.02l214.6-123.85-388.7-224.38c-5.67-3.25-14.85-3.27-20.51 0L72.79 305.63l388.26 224.68v.01Z"
      />
      <path
        stroke="#545454"
        strokeDasharray="3 1"
        strokeWidth={0.5}
        d="m52.3 293.78 20.49 11.85m-24.71-17.66c.04 2.1 1.45 4.18 4.23 5.81v35.47m429.26 201.07c-5.68 3.27-14.87 3.27-20.52-.01v35.47m20.52-35.46 214.6-123.85m-214.6 123.85v35.47m-20.53-35.47L72.8 305.62m388.25 260.16L52.31 329.24m408.74 236.54c5.65 3.28 14.84 3.28 20.52.01m214.6-159.32 20.5-11.82m-20.5 11.82-388.7-224.36c-5.66-3.25-14.83-3.27-20.5 0L72.8 305.63M481.57 565.8l235.1-135.67m0-35.47c2.62-1.52 4.04-3.47 4.23-5.47m-4.23 5.47v35.47m0 0c3.03-1.77 4.44-4.1 4.23-6.39V389.2M52.3 329.25c-2.79-1.63-4.2-3.7-4.24-5.8v-35.48m672.84 100.3c-.2-1.99-1.6-3.94-4.23-5.46l-409.2-236.16c-5.67-3.28-14.85-3.28-20.51-.01L52.29 281.96c-2.78 1.62-4.18 3.7-4.23 5.82m.03 0v.2m672.78 100.3v.93a5 5 0 0 0 0-.93Z"
      />
      <path
        fill="#07090B"
        d="M481.57 530.34c-5.68 3.26-14.87 3.26-20.53 0L72.8 305.62l-20.48-11.86c-2.78-1.62-4.18-3.7-4.23-5.8v35.47c.05 2.1 1.45 4.2 4.23 5.8l408.73 236.55c5.65 3.28 14.84 3.28 20.52.01l235.1-135.67c3.03-1.77 4.44-4.1 4.23-6.39V389.2c-.2 1.99-1.61 3.94-4.23 5.44l-20.5 11.83-214.6 123.86v.02Z"
      />
      <path
        stroke="#545454"
        strokeDasharray="3 1"
        strokeWidth={0.5}
        d="M52.32 281.96c-2.8 1.62-4.2 3.7-4.24 5.82v.2m4.23 5.8 20.48 11.85 388.26 224.68c5.65 3.28 14.84 3.28 20.52.01m0 0 214.6-123.85 20.5-11.82m-235.1 135.67v35.47m-20.53-35.47v35.47m20.53 0c-5.68 3.27-14.87 3.27-20.52-.01L52.31 329.25M481.57 565.8l235.1-135.67c3.03-1.77 4.44-4.1 4.23-6.39V389.2m-4.23-6.37c2.63 1.51 4.04 3.46 4.23 5.44v.94m0 0c-.2 1.98-1.61 3.93-4.23 5.43v35.47M52.29 293.78c-2.78-1.63-4.18-3.7-4.23-5.8v35.46c.05 2.1 1.45 4.19 4.23 5.81v-35.47Z"
      />
      <path
        fill="#02193B"
        d="M481.57 469.74c-5.68 3.27-14.87 3.27-20.53 0L52.32 233.17a9.27 9.27 0 0 1-3.5-3.28 5.29 5.29 0 0 1-.74-2.53v4.44c.06 2.1 1.46 4.2 4.24 5.8l408.73 236.55c5.65 3.28 14.84 3.28 20.52.01l235.1-135.67c3.03-1.78 4.44-4.1 4.23-6.39v-3.5c-.08.7-.3 1.43-.7 2.11a9.21 9.21 0 0 1-3.53 3.33l-235.1 135.69v.01Z"
      />
      <path
        fill="#02193B"
        d="m716.67 322.25-409.2-236.2c-5.67-3.26-14.85-3.27-20.51 0L52.29 221.35c-2.78 1.63-4.18 3.71-4.23 5.82v.2c.02.86.25 1.71.74 2.53a9.2 9.2 0 0 0 3.5 3.28L461.04 469.7c5.65 3.28 14.84 3.28 20.52.02l235.1-135.68a9.22 9.22 0 0 0 3.55-3.34 6 6 0 0 0 .68-2.11v-.93c-.2-1.98-1.6-3.93-4.23-5.45v.02Z"
      />
      <path
        stroke="#143CA3"
        strokeWidth={0.5}
        d="M52.3 233.19 461.06 469.7M52.29 233.2a9.25 9.25 0 0 1-3.5-3.29 5.28 5.28 0 0 1-.74-2.52m4.24 5.8v4.44c-2.78-1.63-4.18-3.71-4.23-5.8v-4.44m413 242.33c5.64 3.28 14.83 3.28 20.51.02m0 0 235.1-135.68a9.22 9.22 0 0 0 3.55-3.34 6 6 0 0 0 .68-2.11v3.5c.2 2.3-1.2 4.61-4.23 6.39l-235.1 135.67m0-4.43v4.43m-20.53-4.43v4.43m20.53 0c-5.68 3.27-14.87 3.27-20.52-.01L52.31 237.62m664.36 96.42v4.43m4.23-10.8c-.2-1.98-1.6-3.93-4.23-5.46L307.47 86.06c-5.67-3.28-14.85-3.28-20.51-.02L52.29 221.36c-2.78 1.63-4.18 3.71-4.23 5.82m.03 0v.2m672.78 100.3c.03.3.03.63 0 .94v-.94Z"
      />
      <g strokeWidth={0.5} opacity={0.75}>
        <path
          stroke="#63A1FF"
          d="m231.13 144.41-3.33-1.92a10.32 10.32 0 0 0-9.33 0l-3.33 1.92c-2.57 1.49-2.57 3.9 0 5.38l3.33 1.93a10.32 10.32 0 0 0 9.33 0l3.33-1.93c2.58-1.48 2.58-3.9 0-5.38Zm64.85 40.29-50.72-29.25a8.48 8.48 0 0 0-7.67 0c-2.13 1.22-2.13 3.2 0 4.42l50.72 29.26a8.48 8.48 0 0 0 7.66 0h.01c2.12-1.23 2.12-3.2 0-4.43Z"
        />
        <path
          stroke="#143CA3"
          d="m329.22 203.89-17.46-10.08a8.48 8.48 0 0 0-7.66 0l-.02.01c-2.11 1.22-2.11 3.2 0 4.42l17.47 10.07a8.48 8.48 0 0 0 7.66 0h.01c2.12-1.23 2.12-3.2 0-4.42ZM616.9 369.78l-16.64-9.6a8.48 8.48 0 0 0-7.66 0l-.01.01c-2.12 1.22-2.12 3.2 0 4.42l16.64 9.6a8.48 8.48 0 0 0 7.66 0h.02c2.11-1.23 2.11-3.2 0-4.43Z"
        />
        <path
          stroke="#63A1FF"
          d="m197.87 163.6-3.33-1.92a10.32 10.32 0 0 0-9.32 0l-3.34 1.92c-2.57 1.48-2.57 3.9 0 5.38l3.34 1.92a10.32 10.32 0 0 0 9.32 0l3.33-1.92c2.58-1.49 2.58-3.9 0-5.38Zm64.85 40.28L212 174.63a8.48 8.48 0 0 0-7.67 0c-2.13 1.23-2.13 3.2 0 4.43l50.72 29.25a8.48 8.48 0 0 0 7.66 0h.01c2.12-1.23 2.12-3.2 0-4.43Z"
        />
        <path
          stroke="#143CA3"
          d="m295.98 223.05-17.47-10.07a8.48 8.48 0 0 0-7.66 0h-.01c-2.12 1.23-2.12 3.2 0 4.43l17.46 10.07a8.47 8.47 0 0 0 7.67 0c2.13-1.23 2.13-3.2 0-4.43Zm287.67 165.92-16.65-9.6a8.47 8.47 0 0 0-7.66 0h-.01c-2.12 1.22-2.12 3.2 0 4.42l16.64 9.6a8.48 8.48 0 0 0 7.66 0h.02c2.11-1.22 2.11-3.2 0-4.42Z"
        />
        <path
          stroke="#63A1FF"
          d="m164.61 182.77-3.33-1.93a10.32 10.32 0 0 0-9.32 0l-3.34 1.93c-2.57 1.48-2.57 3.89 0 5.38l3.34 1.92a10.32 10.32 0 0 0 9.32 0l3.33-1.92c2.58-1.49 2.58-3.9 0-5.38Zm64.87 40.3-50.73-29.26a8.48 8.48 0 0 0-7.66 0l-.01.01c-2.12 1.22-2.12 3.2 0 4.42l50.72 29.25a8.47 8.47 0 0 0 7.67 0c2.12-1.22 2.12-3.2 0-4.42Z"
        />
        <path
          stroke="#143CA3"
          d="m262.72 242.24-17.46-10.07a8.47 8.47 0 0 0-7.67 0c-2.13 1.22-2.13 3.2 0 4.42l17.45 10.07a8.48 8.48 0 0 0 7.67 0h.01c2.12-1.22 2.12-3.2 0-4.42Zm287.67 165.89-16.64-9.6a8.48 8.48 0 0 0-7.67 0l-.01.01c-2.12 1.22-2.12 3.2 0 4.42l16.64 9.6a8.48 8.48 0 0 0 7.67 0c2.13-1.23 2.13-3.2 0-4.43Z"
        />
        <path
          stroke="#63A1FF"
          d="m131.37 201.96-3.33-1.92a10.32 10.32 0 0 0-9.33 0l-3.33 1.92c-2.58 1.49-2.58 3.9 0 5.38l3.33 1.92a10.32 10.32 0 0 0 9.33 0l3.33-1.92c2.58-1.48 2.58-3.89 0-5.38Zm64.85 40.28-50.73-29.26a8.48 8.48 0 0 0-7.66 0h-.01c-2.12 1.23-2.12 3.2 0 4.43l50.72 29.25a8.48 8.48 0 0 0 7.67 0c2.13-1.22 2.13-3.2 0-4.42Z"
        />
        <path
          stroke="#143CA3"
          d="M229.46 261.4 212 251.34a8.48 8.48 0 0 0-7.67 0v.01c-2.13 1.22-2.13 3.2 0 4.42l17.45 10.07a8.47 8.47 0 0 0 7.67 0h.01c2.12-1.22 2.12-3.2 0-4.42Zm287.67 165.92-16.64-9.6a8.48 8.48 0 0 0-7.67 0h-.01c-2.12 1.23-2.12 3.2 0 4.42l16.64 9.6a8.47 8.47 0 0 0 7.67 0c2.13-1.22 2.13-3.2 0-4.42Z"
        />
        <path
          stroke="#63A1FF"
          d="m98.11 221.13-3.33-1.92a10.32 10.32 0 0 0-9.33 0l-3.33 1.92c-2.58 1.49-2.58 3.9 0 5.38l3.33 1.92a10.32 10.32 0 0 0 9.33 0l3.33-1.92c2.58-1.48 2.58-3.9 0-5.38Zm64.85 40.29-50.73-29.25a8.47 8.47 0 0 0-7.66 0h-.01c-2.12 1.22-2.12 3.2 0 4.42l50.72 29.26a8.47 8.47 0 0 0 7.67 0l.01-.01c2.12-1.22 2.12-3.2 0-4.42Z"
        />
        <path
          stroke="#143CA3"
          d="m196.22 280.59-17.47-10.07a8.47 8.47 0 0 0-7.66 0h-.01c-2.12 1.23-2.12 3.2 0 4.42l17.46 10.08a8.48 8.48 0 0 0 7.66 0l.02-.01c2.11-1.22 2.11-3.2 0-4.42ZM483.88 446.5l-16.64-9.6a8.48 8.48 0 0 0-7.66 0h-.01c-2.12 1.23-2.12 3.2 0 4.43l16.64 9.6a8.47 8.47 0 0 0 7.66 0l.01-.01c2.12-1.22 2.12-3.2 0-4.42Z"
        />
      </g>
      <path
        fill="#63A1FF"
        d="M253.54 92.3c4.24-2.46 11.12-2.46 15.38 0l405.3 233.74c2.14 1.25 3.21 2.88 3.18 4.51-.03 1.27-.72 2.54-2.08 3.62-.33.25-.7.5-1.1.74l-17.89 10.3c-4.24 2.46-11.12 2.46-15.37 0l-405.3-233.75a9.22 9.22 0 0 1-1.1-.73c-1.38-1.08-2.08-2.37-2.08-3.66-.03-1.62 1.04-3.25 3.18-4.47l17.88-10.3Z"
      />
      <path
        fill="#3D5DCB"
        d="m674.22 334.91-17.89 10.3c-4.24 2.46-11.12 2.46-15.37 0l-405.3-233.75a9.22 9.22 0 0 1-1.1-.73c-1.38-1.08-2.08-2.37-2.08-3.66v2.89c-.03 1.62 1.04 3.23 3.18 4.46l405.3 233.75c4.25 2.45 11.13 2.45 15.39 0l17.87-10.3c2.09-1.22 3.15-2.78 3.18-4.36v-2.96c-.03 1.27-.72 2.54-2.08 3.62-.33.25-.7.5-1.1.74Z"
      />
      <path
        stroke="#143CA3"
        strokeWidth={0.5}
        d="m235.66 111.46 405.3 233.75m-405.3-233.75a9.22 9.22 0 0 1-1.1-.73c-1.38-1.08-2.08-2.37-2.08-3.66v2.89c-.03 1.6 1.04 3.23 3.18 4.46m0-2.96v2.96m405.3 230.8c4.25 2.44 11.13 2.44 15.37 0l17.89-10.3c.4-.25.77-.5 1.1-.75 1.36-1.08 2.07-2.35 2.07-3.62m-36.43 14.66v2.96m-405.3-233.75 405.3 233.75m15.39-2.96v2.96m-15.39 0c4.25 2.45 11.13 2.45 15.37 0l17.89-10.3c2.09-1.22 3.15-2.78 3.18-4.36v-2.96c.03-1.63-1.03-3.26-3.18-4.5L268.89 92.3c-4.24-2.46-11.12-2.46-15.37 0l-17.87 10.3c-2.15 1.24-3.21 2.85-3.18 4.47"
      />
      <path
        stroke="#1456A3"
        strokeWidth={0.5}
        d="m267.1 102.81-3.33-1.92a10.32 10.32 0 0 0-9.33 0l-3.33 1.92c-2.58 1.49-2.58 3.9 0 5.38l3.33 1.92a10.31 10.31 0 0 0 9.33 0l3.33-1.92c2.58-1.49 2.58-3.9 0-5.38Zm64.84 40.3-50.73-29.25a8.48 8.48 0 0 0-7.66 0h-.02c-2.11 1.23-2.11 3.2 0 4.42l50.73 29.26a8.48 8.48 0 0 0 7.66 0h.01c2.12-1.23 2.12-3.2 0-4.43Z"
      />
      <path
        stroke="#3C6AC5"
        strokeWidth={0.5}
        d="m379.32 170.44-31.6-18.23a8.48 8.48 0 0 0-7.67 0h-.01c-2.12 1.23-2.12 3.2 0 4.43l31.6 18.23a8.48 8.48 0 0 0 7.67 0l.01-.01c2.12-1.22 2.12-3.2 0-4.42ZM651.8 327.57l-16.65-9.6a8.47 8.47 0 0 0-7.66 0l-.01.01c-2.12 1.22-2.12 3.2 0 4.42l16.64 9.6a8.48 8.48 0 0 0 7.66 0h.01c2.12-1.23 2.12-3.2 0-4.43Z"
      />
      <path fill="#08090C" d="M542.46 77.68h159.78v53.2H542.46v-53.2Z" />
      <path
        fill="#525252"
        d="M613.04 294.67a1.98 1.98 0 1 0 1.97 1.98 1.97 1.97 0 0 0-1.97-1.97v-.01Zm-.37-170.44v172.42h.74V124.23h-.74Z"
      />
      <path
        fill="#6A6B6C"
        d="M562.2 106.76c.1.48.26.89.5 1.26.26.37.57.65.96.84.42.2.88.3 1.34.3.42 0 .79-.06 1.1-.18.32-.12.57-.3.75-.55a1.59 1.59 0 0 0 .25-1.18 1.55 1.55 0 0 0-.66-1 6.86 6.86 0 0 0-2.2-.96 6.15 6.15 0 0 1-2.24-1.1c-.6-.47-.87-1.1-.87-1.86a2.67 2.67 0 0 1 1.6-2.51c.5-.24 1.06-.36 1.68-.36a3.85 3.85 0 0 1 3.2 1.63c.34.5.53 1.08.6 1.7l-1.3.09c-.05-.42-.2-.81-.44-1.16-.22-.33-.53-.6-.89-.77a2.6 2.6 0 0 0-1.2-.28 2.1 2.1 0 0 0-1.39.46 1.47 1.47 0 0 0-.56 1.2c0 .38.12.7.34.95.24.25.52.44.86.59.49.19 1 .35 1.5.48 1 .3 1.8.71 2.4 1.22.6.5.9 1.12.9 1.86 0 .62-.16 1.15-.5 1.6-.34.44-.77.78-1.31 1a4.41 4.41 0 0 1-3.67-.1 3.63 3.63 0 0 1-2.05-3.08l1.3-.09Zm15.54-7.06v1.21h-5.33v3.43h5.17v1.18h-5.18v3.46h5.47v1.21h-6.7V99.7h6.59-.02Zm3.03 0h1.25v9.9l-.64-.62h6.22v1.21h-6.81V99.7h-.02Zm16.2 0v1.21h-5.34v3.43h5.17v1.18h-5.18v3.46h5.47v1.21h-6.7V99.7h6.59Zm10.06 7.2c-.14.98-.6 1.89-1.3 2.6a3.4 3.4 0 0 1-2.44.93 3.7 3.7 0 0 1-2.2-.67 4.22 4.22 0 0 1-1.4-1.89 8.08 8.08 0 0 1-.47-2.9c0-1.13.17-2.1.48-2.94a4.1 4.1 0 0 1 1.39-1.9 3.72 3.72 0 0 1 2.22-.67c.9 0 1.68.3 2.3.89a4.62 4.62 0 0 1 1.34 2.4l-1.34.1a3.34 3.34 0 0 0-.88-1.6 1.98 1.98 0 0 0-1.44-.58c-.59 0-1.1.18-1.5.5-.4.35-.72.83-.94 1.48a7.7 7.7 0 0 0-.32 2.31c0 .92.11 1.69.32 2.32.22.64.53 1.12.93 1.45.42.32.92.49 1.51.49.62 0 1.13-.21 1.54-.62a3.3 3.3 0 0 0 .89-1.78l1.3.08h.01Zm9.5-5.99h-3.2v9.28h-1.25v-9.28h-3.21V99.7h7.66v1.21Zm9.28-1.21v1.21h-5.34v3.43h5.16v1.18h-5.17v3.46h5.47v1.21h-6.7V99.7h6.58Zm5.34 0c.98 0 1.82.2 2.53.62a4 4 0 0 1 1.66 1.79c.38.8.59 1.74.59 2.85 0 1.1-.2 2.06-.58 2.84-.37.78-.9 1.37-1.6 1.79-.7.41-1.53.6-2.51.6h-2.63V99.7h2.54Zm0 9.28c1.13 0 1.97-.33 2.56-1 .6-.68.9-1.69.9-3.02s-.3-2.35-.88-3.03c-.6-.68-1.45-1.02-2.58-1.02h-1.3v8.07h1.3Zm23.02-8.07h-2.4v8.07h2.5v1.21h-6.22V109h2.48v-8.08h-2.4V99.7h6.03v1.21h.01Zm10.42 0h-3.21v9.28h-1.25v-9.28h-3.2V99.7h7.66v1.21Zm9.27-1.21v1.21h-5.34v3.43h5.17v1.18h-5.18v3.46h5.47v1.21h-6.7V99.7h6.59Zm4.62 0 1.78 9.09h-.57l1.78-9.1h2v10.5h-1.25v-9.52h.08l-1.78 8.78h-1.08l-1.77-8.78h.06v9.52h-1.25V99.7h2Z"
      />
      <path
        fill="#07080A"
        d="m70.9 127.93 430.22 248.14-18.57 10.7c-5.65 3.25-14.84 3.25-20.5 0L52.31 150.45A9.6 9.6 0 0 1 49 147.5a5.2 5.2 0 0 1-.86-3.82c.34-1.84 1.72-3.63 4.17-5.04l18.57-10.71Z"
      />
      <path
        fill="#07080A"
        d="m501.12 376.06-18.57 10.71c-5.65 3.25-14.84 3.25-20.5 0L52.31 150.45A9.6 9.6 0 0 1 49 147.5a5.5 5.5 0 0 0-.92 2.5v.84c.15 2.02 1.57 3.99 4.23 5.54l409.72 236.3c5.67 3.25 14.86 3.25 20.5 0l18.58-10.71v-5.91Z"
      />
      <path
        stroke="#545454"
        strokeWidth={0.5}
        d="M48.17 143.68c.32-1.83 1.71-3.62 4.17-5.02l18.54-10.73 430.24 248.13v5.9l-18.57 10.72c-5.65 3.25-14.84 3.25-20.5 0L52.31 156.36c-2.66-1.52-4.08-3.51-4.23-5.52m453.04 225.23-18.56 10.72c-5.66 3.25-14.84 3.25-20.51 0L52.32 150.45a9.6 9.6 0 0 1-3.31-2.95m-.92 3.34V150m0 .83a4.87 4.87 0 0 1 0-.83m0 0c.1-.9.41-1.75.92-2.5a5.2 5.2 0 0 1-.86-3.83m0-.01-.06 6.32"
      />
      <path
        fill="#0E0F11"
        d="m264.09 22.39 430.24 248.14v-5.9L264.09 16.47v5.9Z"
      />
      <path
        fill="#07080A"
        d="M717.2 239.59 307.46 3.28c-5.65-3.25-14.82-3.25-20.49 0l-22.88 13.2 430.24 248.14 22.87-13.21a9.6 9.6 0 0 0 3.31-2.96c.63-.94.94-1.95.94-2.95 0-2.15-1.42-4.29-4.25-5.91Z"
      />
      <path
        stroke="#545454"
        strokeWidth={0.5}
        d="m694.31 264.6 22.89-13.2a9.6 9.6 0 0 0 3.31-2.95m0 0c1.96 2.99.85 6.48-3.31 8.87l-22.87 13.21L264.09 22.4v-5.91M720.5 248.45a5.2 5.2 0 0 0 .94-2.95v6.57m-27.12 18.45v-5.91L264.07 16.48l22.89-13.2c5.67-3.25 14.84-3.25 20.5 0l409.72 236.3c2.83 1.63 4.25 3.77 4.25 5.92"
      />
      <path
        stroke="#424242"
        strokeWidth={0.5}
        d="m313.48 15.56-9.99-5.75a10.32 10.32 0 0 0-9.32 0l-9.99 5.75c-2.57 1.49-2.57 3.9 0 5.38l9.99 5.76a10.32 10.32 0 0 0 9.32 0l9.99-5.76c2.57-1.48 2.57-3.9 0-5.38Zm103.09 66.18L328.43 30.9a8.48 8.48 0 0 0-7.66 0l-.01.01c-2.12 1.22-2.12 3.2 0 4.42l88.14 50.83a8.48 8.48 0 0 0 7.66 0h.01c2.12-1.23 2.12-3.2 0-4.42Z"
      />
      <path
        fill="#0E0F11"
        d="M481.57 386.98c-5.68 3.26-14.87 3.26-20.53 0L52.32 150.4a9.26 9.26 0 0 1-3.5-3.28 5.29 5.29 0 0 1-.74-2.53v5.91c.06 2.1 1.46 4.2 4.24 5.8l408.73 236.55c5.65 3.28 14.84 3.28 20.52.01l235.1-135.67c3.03-1.77 4.44-4.1 4.23-6.38v-4.98c-.08.7-.3 1.43-.7 2.11a9.22 9.22 0 0 1-3.53 3.33l-235.1 135.68v.02ZM264.08 22.38v-5.92L70.9 127.91l5.6 3.2L264.1 22.38v-.02Z"
      />
      <path
        stroke="#545454"
        strokeWidth={0.5}
        d="m52.3 150.42 408.77 236.53M52.29 150.42a9.26 9.26 0 0 1-3.5-3.28 5.29 5.29 0 0 1-.74-2.53m4.24 5.81v5.91c-2.78-1.62-4.18-3.7-4.23-5.8v-5.92m413 242.34c5.64 3.28 14.83 3.28 20.51.01m0 0 235.1-135.67a9.21 9.21 0 0 0 3.55-3.34 6 6 0 0 0 .68-2.11v4.98c.2 2.29-1.2 4.6-4.23 6.38l-235.1 135.68m0-5.92v5.92m-20.53-5.92v5.92m20.53 0c-5.68 3.26-14.87 3.26-20.52-.02L52.31 156.33m664.36 94.94v5.92m4.23-12.28c-.2-1.98-1.6-3.94-4.23-5.46L307.47 3.3a18.96 18.96 0 0 0-6.66-2.21c-4.8-.7-10.1.04-13.85 2.2l-22.87 13.2v5.9L76.49 131.08l-5.6-3.2m-22.8 16.53c.05-2.11 1.45-4.21 4.25-5.82l18.57-10.7m-22.83 16.52v.2m216-128.16L70.9 127.91m650 117.01a5 5 0 0 1 0 .93v-.93Z"
      />
      <path
        stroke="#424242"
        strokeWidth={0.5}
        d="m82.38 143.94-5.65-3.26a7.8 7.8 0 0 0-7.05 0l-5.61 3.24c-1.95 1.12-1.95 2.94 0 4.06l5.65 3.26a7.8 7.8 0 0 0 7.05 0l5.6-3.23c1.96-1.13 1.96-2.95 0-4.07Zm388.48 228.03-47.1-27.17a9.21 9.21 0 0 0-8.34 0c-2.3 1.32-2.3 3.47 0 4.8l47.12 27.17a9.21 9.21 0 0 0 8.32 0c2.3-1.32 2.3-3.47 0-4.8Zm-69.76-40.91-47.7-27.51a9.2 9.2 0 0 0-8.32 0c-2.3 1.33-2.3 3.48 0 4.8l47.7 27.51a9.22 9.22 0 0 0 8.33 0c2.3-1.32 2.3-3.47 0-4.8Z"
      />
      <path fill="#08090C" d="M145.95 467.85h150.9v53.2h-150.9v-53.2Z" />
      <path
        fill="#494949"
        d="M212.87 325.14a1.97 1.97 0 1 0 0-3.94 1.97 1.97 0 0 0 0 3.94Zm.37 154.95V323.18h-.75v156.9h.75Z"
      />
      <path
        fill="#6A6B6C"
        d="M165.05 489.87h1.24v9.9l-.64-.62h6.2v1.21h-6.8v-10.49Zm15.72 1.21h-2.4v8.07h2.5v1.21h-6.22v-1.2h2.48v-8.08h-2.4v-1.2h6.05v1.2Zm4.15 5.86c.09.47.26.88.5 1.25.25.37.56.65.95.84.4.21.84.3 1.34.3.42 0 .79-.06 1.1-.18a1.46 1.46 0 0 0 1-1.1 1.57 1.57 0 0 0-.66-1.63 6.86 6.86 0 0 0-2.2-.96 6.15 6.15 0 0 1-2.24-1.1 2.22 2.22 0 0 1-.87-1.86 2.67 2.67 0 0 1 1.6-2.51c.5-.24 1.06-.36 1.68-.36a3.84 3.84 0 0 1 3.2 1.63c.34.5.55 1.08.6 1.7l-1.3.09a2.6 2.6 0 0 0-.44-1.15c-.22-.33-.53-.6-.89-.77a2.57 2.57 0 0 0-1.18-.28c-.57 0-1.04.14-1.4.45a1.47 1.47 0 0 0-.57 1.2c0 .39.12.71.34.95.24.25.53.44.86.59.5.19 1 .35 1.5.49 1.01.3 1.81.7 2.4 1.2.6.51.9 1.13.9 1.87 0 .62-.16 1.15-.5 1.6a3 3 0 0 1-1.31 1 4.43 4.43 0 0 1-3.67-.1 3.65 3.65 0 0 1-2.04-3.08l1.3-.08Zm15.89-5.86h-3.21v9.28h-1.25v-9.28h-3.2v-1.2h7.66v1.2Zm19.32 5.99c-.15.98-.6 1.89-1.29 2.6a3.42 3.42 0 0 1-2.44.93 3.7 3.7 0 0 1-2.2-.66 4.03 4.03 0 0 1-1.4-1.9 8.08 8.08 0 0 1-.47-2.9 8 8 0 0 1 .48-2.93c.3-.83.78-1.47 1.39-1.91a3.7 3.7 0 0 1 2.2-.67c.92 0 1.69.3 2.32.9a4.6 4.6 0 0 1 1.32 2.4l-1.33.09a3.35 3.35 0 0 0-.87-1.6 2 2 0 0 0-1.44-.57c-.59 0-1.1.17-1.5.5-.4.34-.72.83-.94 1.48-.22.63-.33 1.4-.33 2.3 0 .92.1 1.69.33 2.32.22.64.53 1.13.93 1.45.42.33.92.49 1.51.49.6 0 1.13-.2 1.54-.62a3.4 3.4 0 0 0 .87-1.77l1.32.07Zm5.68 3.55a3.4 3.4 0 0 1-2.09-.68 4.13 4.13 0 0 1-1.33-1.9 8.37 8.37 0 0 1-.44-2.9c0-1.13.15-2.1.44-2.93.31-.83.76-1.47 1.34-1.91a3.3 3.3 0 0 1 2.07-.67c.81 0 1.5.23 2.07.67a3.98 3.98 0 0 1 1.33 1.92c.31.81.47 1.79.47 2.91 0 1.13-.14 2.09-.46 2.91a4.14 4.14 0 0 1-1.33 1.9 3.3 3.3 0 0 1-2.07.66v.02Zm0-1.23c.53 0 1-.16 1.38-.52.38-.34.68-.83.88-1.48.21-.63.3-1.39.3-2.26 0-.87-.09-1.62-.3-2.27a3.15 3.15 0 0 0-.88-1.48 2 2 0 0 0-1.38-.53c-.53 0-1 .17-1.39.51-.38.36-.68.85-.89 1.5-.2.65-.3 1.4-.3 2.27 0 .87.1 1.63.3 2.26.21.65.5 1.14.9 1.48.38.36.85.52 1.38.52Zm8.1-9.52 3.55 8.93v-8.93h1.22v10.5h-1.9l-3.4-8.64v8.63h-1.24v-10.49h1.78-.02Zm14.94 1.21h-3.2v9.28h-1.24v-9.28h-3.21v-1.2h7.66v1.2h-.01Zm9.27-1.2v1.2h-5.32v3.43h5.16v1.18h-5.18v3.46h5.48v1.21h-6.7v-10.49h6.56Zm4.62 0 3.55 8.92v-8.93h1.23v10.5h-1.91l-3.39-8.64v8.63h-1.24v-10.49h1.77-.01Zm14.94 1.2h-3.2v9.28h-1.24v-9.28h-3.2v-1.2h7.66v1.2h-.02Z"
      />
      <path fill="#08090C" d="M416.7 5.26h131.67v53.2H416.7V5.27Z" />
      <path fill="#07080A" d="M484.53 52.9v64.77h-8.88V52.94l8.88-.03Z" />
      <path
        fill="#525252"
        d="M480.1 117.15a1.97 1.97 0 1 0 0 3.94 1.97 1.97 0 0 0 0-3.94Zm-.36-61.33v63.3h.74v-63.3h-.74Z"
      />
      <path
        fill="#6A6B6C"
        d="M436.45 34.35c.09.47.25.88.5 1.25s.56.65.95.84c.42.2.88.3 1.35.3.4 0 .78-.06 1.09-.18.33-.12.58-.3.75-.54a1.56 1.56 0 0 0-.41-2.2 6.86 6.86 0 0 0-2.19-.95 6.14 6.14 0 0 1-2.25-1.1 2.25 2.25 0 0 1-.87-1.86 2.68 2.68 0 0 1 1.6-2.51c.5-.24 1.06-.36 1.68-.36a3.85 3.85 0 0 1 3.2 1.63c.34.5.53 1.08.6 1.7l-1.3.09a2.6 2.6 0 0 0-.44-1.15c-.22-.34-.53-.6-.89-.77a2.6 2.6 0 0 0-1.2-.28 2.1 2.1 0 0 0-1.39.45 1.48 1.48 0 0 0-.56 1.2c0 .39.12.71.34.95.24.25.52.44.86.59.5.19 1 .35 1.5.49 1 .3 1.8.7 2.4 1.2.6.51.9 1.13.9 1.87 0 .62-.16 1.15-.5 1.6-.34.44-.77.78-1.31 1a4.4 4.4 0 0 1-3.67-.1 3.64 3.64 0 0 1-2.04-3.08l1.3-.08Zm15.53-7.07v1.21h-5.32v3.43h5.16v1.18h-5.18v3.46h5.48v1.21h-6.7V27.28H452h-.02Zm5.3 0h1.66l3.2 10.5h-1.26l-2.76-9.4-2.76 9.4h-1.28l3.22-10.5h-.02Zm-1.6 7.5.45-1.14h4l.4 1.13h-4.85Zm11.99-7.5c1.12 0 2 .3 2.63.86.64.56.96 1.33.96 2.3 0 .48-.1.9-.32 1.27-.21.39-.5.7-.83.92-.34.24-.7.36-1.05.37l-.46-.18c.83 0 1.43.15 1.8.45.37.26.6.74.67 1.42l.3 3.1h-1.26l-.27-2.99c-.04-.45-.24-.78-.6-.97-.33-.2-.9-.3-1.68-.3h-1.94v4.24h-1.24V27.28h3.3-.01Zm0 5.04c.74 0 1.3-.15 1.7-.49.38-.32.59-.8.59-1.42 0-.6-.2-1.07-.6-1.41a2.52 2.52 0 0 0-1.68-.5h-2.07v3.84h2.07l-.01-.02Zm13.6 2.16c-.14.98-.6 1.9-1.3 2.6a3.4 3.4 0 0 1-2.44.93 3.7 3.7 0 0 1-2.2-.66 4.23 4.23 0 0 1-1.4-1.9 8.09 8.09 0 0 1-.46-2.9c0-1.13.16-2.1.47-2.93.32-.83.78-1.47 1.39-1.91a3.72 3.72 0 0 1 2.22-.67c.9 0 1.69.3 2.3.9a4.62 4.62 0 0 1 1.34 2.4l-1.33.09a3.35 3.35 0 0 0-.89-1.6 2 2 0 0 0-1.44-.57c-.59 0-1.09.17-1.5.5-.4.34-.71.83-.94 1.48-.2.63-.32 1.4-.32 2.3 0 .92.12 1.69.32 2.32.23.64.54 1.13.94 1.45.41.33.91.49 1.5.49.63 0 1.13-.2 1.54-.62.45-.42.73-1.02.9-1.78l1.3.08Zm2.29-7.2h1.24v5.1l-.62-.5h5.53l-.62.5v-5.1h1.24v10.5h-1.24V32.6l.62.5h-5.53l.62-.5v5.17h-1.24V27.28Zm19.33 0h2.89c1.18 0 2.11.25 2.75.75.65.5.98 1.23.98 2.16 0 .43-.1.82-.33 1.14-.2.35-.5.62-.87.8-.36.2-.77.3-1.25.3v-.1c.9 0 1.59.23 2.1.67.54.44.79 1.05.79 1.82 0 .91-.31 1.62-.96 2.16-.64.53-1.51.8-2.62.8h-3.48v-10.5Zm3.48 9.28c.71 0 1.26-.15 1.66-.44.41-.33.62-.75.62-1.3 0-.56-.2-1-.6-1.3-.38-.3-.94-.45-1.68-.45h-2.22v3.5h2.22Zm-.6-4.73c.8 0 1.38-.13 1.8-.41a1.38 1.38 0 0 0 .63-1.23 1.46 1.46 0 0 0-.63-1.25 3 3 0 0 0-1.78-.45h-1.65v3.34h1.64Zm9.18-4.55h1.66l3.2 10.5h-1.26l-2.77-9.4-2.77 9.4h-1.27l3.21-10.5Zm-1.6 7.5.43-1.14h4l.43 1.13h-4.86Zm11.99-7.5c1.12 0 2 .3 2.62.86.65.56.97 1.33.97 2.3 0 .48-.12.9-.34 1.27-.19.39-.47.7-.83.92a1.8 1.8 0 0 1-1.03.37l-.46-.18c.83 0 1.43.15 1.79.45.38.26.6.74.68 1.42l.3 3.1h-1.28l-.26-2.99c-.03-.45-.23-.78-.6-.97a3.56 3.56 0 0 0-1.67-.3h-1.93v4.24h-1.26V27.28h3.31-.01Zm0 5.04c.74 0 1.3-.15 1.68-.49.4-.32.6-.8.6-1.42 0-.6-.2-1.07-.6-1.41a2.53 2.53 0 0 0-1.67-.5h-2.07v3.84h2.07l-.01-.02Z"
      />
      <path fill="#08090C" d="M.96 30.38h131.67V83.6H.96V30.4Z" />
      <path fill="#07080A" d="M74.93 68.46v64.74h-8.88V68.46h8.88Z" />
      <path
        fill="#525252"
        d="M70.5 133a1.97 1.97 0 1 0 0 3.93 1.97 1.97 0 0 0 0-3.93Zm-.38-49.76v51.72h.74V83.24h-.74Z"
      />
      <path
        fill="#6A6B6C"
        d="M22.32 52.4h1.66l3.2 10.5h-1.27l-2.76-9.4-2.77 9.4h-1.27l3.2-10.5Zm-1.6 7.5.43-1.14h4l.42 1.14h-4.85Zm15.98-.3c-.15.98-.6 1.9-1.29 2.6a3.4 3.4 0 0 1-2.44.94 3.7 3.7 0 0 1-2.22-.67 4.1 4.1 0 0 1-1.37-1.9 8.08 8.08 0 0 1-.48-2.9c0-1.13.15-2.1.48-2.93a3.67 3.67 0 0 1 3.6-2.57c.9 0 1.68.3 2.31.89a4.7 4.7 0 0 1 1.32 2.4l-1.33.1a3.35 3.35 0 0 0-.89-1.6 1.98 1.98 0 0 0-1.42-.58c-.59 0-1.1.18-1.5.5-.42.34-.73.83-.94 1.48-.22.64-.33 1.4-.33 2.3 0 .92.1 1.7.33 2.33.16.56.48 1.07.93 1.45.42.32.92.48 1.51.48.6 0 1.13-.2 1.54-.62.41-.41.71-1.02.87-1.77l1.32.07Zm9.5-5.98h-3.21v9.28h-1.25v-9.28h-3.2V52.4h7.66v1.2Zm8.8 0h-2.4v8.07h2.49v1.2h-6.22v-1.2h2.49v-8.07h-2.4V52.4H55v1.2Zm6.59 9.52c-.8 0-1.5-.23-2.08-.67a4.03 4.03 0 0 1-1.33-1.9 8.39 8.39 0 0 1-.44-2.9c0-1.13.15-2.1.44-2.93.31-.83.74-1.46 1.33-1.9a3.3 3.3 0 0 1 2.08-.67c.8 0 1.5.22 2.07.66a4 4 0 0 1 1.33 1.93c.3.8.46 1.78.46 2.9a8.6 8.6 0 0 1-.45 2.92c-.25.74-.71 1.4-1.33 1.89-.6.44-1.27.67-2.07.67h-.01Zm0-1.22c.53 0 .99-.16 1.37-.51.4-.34.7-.83.89-1.48.22-.73.32-1.5.3-2.26 0-.88-.1-1.63-.29-2.28a3.13 3.13 0 0 0-.88-1.48 1.98 1.98 0 0 0-1.4-.53c-.53 0-.99.18-1.39.52-.38.35-.68.84-.88 1.5-.2.64-.3 1.4-.3 2.27 0 .87.1 1.62.3 2.26.2.65.5 1.14.88 1.48a2 2 0 0 0 1.4.51Zm8.1-9.51 3.54 8.92v-8.92h1.24V62.9h-1.9l-3.4-8.63v8.63h-1.24V52.4h1.78-.02Zm17.46 0h2.89c1.18 0 2.11.25 2.75.75a2.57 2.57 0 0 1 .64 3.3c-.2.33-.5.6-.86.8-.36.19-.77.29-1.25.29v-.1c.9 0 1.59.23 2.1.68.54.44.79 1.04.79 1.81 0 .92-.31 1.63-.96 2.16-.64.53-1.51.8-2.62.8h-3.48V52.4Zm3.48 9.28c.7 0 1.26-.15 1.65-.45.42-.32.63-.75.63-1.3 0-.56-.2-.99-.6-1.3-.38-.3-.94-.44-1.68-.44H88.4v3.49h2.22Zm-.6-4.73c.79 0 1.38-.14 1.8-.42a1.37 1.37 0 0 0 .63-1.22 1.45 1.45 0 0 0-.63-1.26 3.02 3.02 0 0 0-1.78-.44H88.4v3.34h1.65Zm9.18-4.55h1.66l3.2 10.49h-1.27l-2.76-9.4-2.77 9.4H96l3.2-10.5Zm-1.6 7.49.43-1.14h4l.42 1.14h-4.85Zm11.98-7.5c1.13 0 2 .3 2.62.86.66.56.97 1.33.97 2.3 0 .48-.1.9-.33 1.28a2.45 2.45 0 0 1-1.86 1.29l-.48-.18c.85 0 1.45.15 1.8.44.4.27.6.74.67 1.42l.3 3.1h-1.26l-.27-2.98a1.1 1.1 0 0 0-.59-.98c-.34-.19-.88-.3-1.68-.3h-1.93v4.25h-1.25V52.4h3.3Zm0 5.05c.74 0 1.3-.15 1.7-.5.4-.32.58-.8.58-1.41 0-.6-.19-1.08-.59-1.42a2.53 2.53 0 0 0-1.69-.5h-2.05v3.84h2.07l-.02-.01Z"
      />
    </g>
    <defs>
      <clipPath id="a">
        <path fill="#fff" d="M.96.47h722v569H.96z" />
      </clipPath>
    </defs>
  </svg>