  <svg
    xmlns="http://www.w3.org/2000/svg"
    width={110}
    height={30}
    fill="none"
    {...props}
  >
    <g opacity={0.5}>
      <path
        fill="#fff"
        d="M48.347 11.278H35.438l-2.437 7.745h12.885l.676-2.22h5.67l-1.134 3.571a2.613 2.613 0 0 1-.41.82c-.193.266-.41.507-.676.725a3.154 3.154 0 0 1-.868.506c-.314.12-.652.193-1.014.193H28.658c-.507 0-.917-.145-1.207-.41a1.738 1.738 0 0 1-.53-.99 2.006 2.006 0 0 1 .072-.916l3.257-10.4a3.38 3.38 0 0 1 .435-.82c.193-.266.41-.507.675-.724a3.15 3.15 0 0 1 .869-.507c.314-.12.676-.193 1.013-.193h19.473c.506 0 .916.145 1.206.41.29.266.459.58.53.966.073.313.025.651-.12.965h.024l-1.037 3.498h-5.646l.7-2.22h-.025ZM59.036 19.023H71.92l3.546-11.365h5.647L76.48 22.642H54.717c-.507 0-.917-.144-1.207-.41a1.738 1.738 0 0 1-.53-.99 2.004 2.004 0 0 1 .072-.916l3.933-12.668h5.67l-3.571 11.365h-.048Z"
      />
      <path
        fill="red"
        d="M106.474 9.01a1.76 1.76 0 0 0-.531-.966c-.29-.265-.676-.41-1.207-.41H85.264c-.362 0-.7.072-1.013.193-.314.12-.628.29-.869.507a3.822 3.822 0 0 0-.675.723 3.379 3.379 0 0 0-.435.82l-1.013 3.234a1.892 1.892 0 0 0-.049.82c.049.242.145.459.266.676.12.193.314.362.579.507-.53.193-.965.482-1.303.868-.362.387-.603.797-.724 1.207l-.99 3.088c-.096.314-.12.628-.072.917.073.386.242.724.531.99.29.265.7.41 1.207.41h19.472a2.8 2.8 0 0 0 1.013-.193c.314-.12.604-.29.869-.507a3.84 3.84 0 0 0 .676-.724c.193-.265.313-.555.41-.82l.989-3.065a2.08 2.08 0 0 0 .073-.94c-.073-.507-.362-.917-.845-1.183a3.385 3.385 0 0 0 1.231-.796 3.83 3.83 0 0 0 .796-1.158h.024l.965-3.258h-.024c.145-.313.193-.651.121-.965v.024Zm-8.518 10.013H85.071l.652-2.075h12.885l-.652 2.075Zm1.761-5.67h-12.86l.651-2.076h12.909l-.675 2.075h-.025ZM66.517 17.575l7.431-9.845-6.297-.048L70.015.66c.097-.24-.241-.386-.362-.193-.892 1.352.145-.217-5.96 8.976-.265.41 0 .941.507.941h4.754l-2.775 6.95c-.097.217.193.41.362.217l-.024.024Z"
      />
      <path
        fill="#fff"
        d="m.427 29.037 1.375-3.74h4.102l-.314.869H2.623l-.218.579h2.8l-.29.796H2.14l-.217.579h2.992l-.314.917H.427ZM9.113 29.037 7.955 26.31l-.99 2.727H5.809l1.375-3.74h1.761l1.183 2.702.989-2.702h1.158l-1.375 3.74H9.113ZM12.202 29.037l1.351-3.74h4.102l-.313.869h-2.944l-.217.579h2.775l-.266.796h-2.799l-.217.579h3.016l-.338.917h-4.15ZM19.416 27.13h1.906c.314 0 .459-.12.555-.386l.049-.12c.12-.338 0-.386-.386-.386h-1.786l-.338.916v-.024Zm-.482-1.833h3.474c.893 0 .965.434.724 1.11l-.096.24c-.193.508-.41.797-.966.918.314.072.555.217.314.844l-.241.628h-1.158l.169-.459c.144-.386.072-.53-.29-.53h-1.81l-.362.965h-1.158l1.351-3.74.049.024ZM24.242 26.6c.41-1.086 1.11-1.352 2.148-1.352h1.737c1.303 0 1.303.459 1.038 1.207l-.049.12h-1.133c.144-.361-.049-.41-.435-.41h-1.255c-.579 0-.772.145-1.013.773l-.169.458c-.241.651-.145.772.434.772h1.231c.29 0 .627-.048.748-.41l.048-.12H26.15l.29-.773h2.581l-.386 1.062c-.386 1.086-.965 1.134-2.268 1.134H24.99c-1.038 0-1.545-.265-1.159-1.351l.41-1.11ZM31.166 29.037l.483-1.303-1.182-2.437h1.375l.7 1.52 1.834-1.52h1.375l-2.968 2.437-.458 1.303h-1.159ZM39.203 26.6c.41-1.086 1.11-1.352 2.147-1.352h1.352c1.64 0 1.713.362 1.327 1.4H42.87l.048-.096c.096-.266-.072-.338-.41-.338h-1.255c-.603 0-.82.29-.99.748l-.144.41c-.193.53-.169.748.386.748h1.23c.507 0 .7-.048.87-.507h1.157l-.12.362c-.242.627-.628 1.134-1.786 1.134H40c-1.037 0-1.544-.265-1.158-1.351l.41-1.11-.048-.048ZM46.127 27.372c-.193.53-.169.748.386.748h1.472c.53 0 .724-.217.941-.748l.145-.41c.169-.459.169-.748-.434-.748h-1.352c-.603 0-.82.29-.989.748l-.145.41h-.024Zm-.917-.772c.41-1.086 1.11-1.352 2.148-1.352h1.834c1.037 0 1.544.266 1.158 1.352l-.41 1.11c-.41 1.085-1.11 1.35-2.148 1.35h-1.834c-1.037 0-1.544-.264-1.158-1.35l.41-1.11ZM53.992 29.037l-1.158-2.727h-.024l-.99 2.727h-1.133l1.35-3.74h1.786l1.158 2.702.99-2.702h1.158l-1.351 3.74h-1.786ZM58.408 29.037l1.013-2.823h-1.616l.337-.917h4.368l-.338.917H60.58l-1.038 2.823h-1.134ZM64.031 27.13h1.907c.313 0 .458-.12.555-.386l.048-.12c.12-.338 0-.386-.386-.386h-1.786l-.338.916v-.024Zm-.482-1.833h3.474c.893 0 .966.434.724 1.11l-.096.24c-.193.508-.41.797-.965.918.313.072.555.217.313.844l-.24.628h-1.16l.17-.459c.144-.386.072-.53-.29-.53h-1.81l-.361.965h-1.159l1.352-3.74.048.024ZM69.774 27.372c-.193.53-.17.748.386.748h1.472c.53 0 .723-.217.94-.748l.145-.41c.17-.459.17-.748-.434-.748h-1.351c-.603 0-.82.29-.99.748l-.144.41h-.024Zm-.917-.772c.41-1.086 1.11-1.352 2.147-1.352h1.834c1.038 0 1.544.266 1.158 1.352l-.41 1.11c-.41 1.085-1.11 1.35-2.147 1.35h-1.834c-1.038 0-1.544-.264-1.159-1.35l.41-1.11ZM74.335 29.037l1.351-3.74h1.158l-1.013 2.775h2.582l-.362.965h-3.716ZM83.48 25.297h1.158l-.797 2.171c-.168.483-.072.652.41.652h1.135c.458 0 .7-.193.892-.652l.797-2.171h1.158l-.869 2.413c-.338.94-.99 1.375-2.027 1.375h-1.64c-1.062 0-1.376-.434-1.038-1.375l.869-2.413h-.049ZM91.441 29.037l-1.158-2.727h-.024l-.99 2.727h-1.133l1.351-3.74h1.785l1.159 2.702h.024l.99-2.702h1.133l-1.351 3.74h-1.786ZM95.93 25.297h1.158l-1.352 3.74h-1.158l1.351-3.74ZM98.414 29.037l1.038-2.823h-1.617l.338-.917h4.367l-.338.917h-1.616l-1.014 2.823h-1.158ZM25.473 19.023l-.41 1.279c-.049.145-.073.314-.097.458l.53-1.737h-.023Z"
      />
      <path fill="#000" d="m27.91 11.278.217-.724-.217.724Z" />
      <path
        fill="#fff"
        d="m8.993 16.972-.049.144.049-.144ZM28.344 9.034c-.072-.362-.217-.7-.483-.966-.265-.265-.651-.41-1.182-.41H8.56c-.339 0-.676.073-.99.193a3.15 3.15 0 0 0-.869.507 3.823 3.823 0 0 0-.675.724 3.378 3.378 0 0 0-.435.82l-3.257 10.4c-.097.314-.12.627-.073.917.073.386.242.724.531.989.29.265.7.41 1.207.41H24.41l.579-1.882c0-.145.048-.29.097-.458l.41-1.28H8.365l.338-1.06.265-.87.049-.144 1.447-4.609.073-.265.265-.82h17.132l.217-.725.169-.579c.072-.362.096-.675.048-.94l-.024.048ZM8.68 17.985l.265-.868-.265.868Z"
      />
      <path
        fill="#fff"
        d="M11.093 16.971h15.032l1.134-3.619H12.227l-1.134 3.62Z"
      />
      <path
        fill="red"
        d="M107.655 7.803h-.338v-.145h.821v.145h-.338v.893h-.145v-.893Zm.724-.145h.169l.362.58.362-.58h.145v1.038h-.145v-.797l-.362.58-.362-.58v.797h-.145V7.658h-.024Z"
      />
    </g>
  </svg>