  <svg
    xmlns="http://www.w3.org/2000/svg"
    width={205}
    height={24}
    fill="none"
    {...props}
  >
    <g opacity={0.5}>
      <path
        fill="#fff"
        d="M34.88 5.24 31.884 14.9h-5.468L30.91.371h5.13l9.812 9.737L48.848.37h5.505l-4.531 14.53h-5.094L34.88 5.24ZM80.041.371h21.084c.487 0 .899.112 1.161.375.262.262.449.561.524.936.075.3 0 .636-.112.936l-1.423 4.569c-.113.262-.225.524-.412.786a5.795 5.795 0 0 1-.637.712c-.262.187-.524.374-.824.487-.3.112-.636.187-.936.187h-5.88c.337.225.674.487 1.049.711.374.225.749.45 1.123.637a6.67 6.67 0 0 0 1.087.45c.337.112.674.187.936.187h4.194l-1.086 3.52h-5.617a3.3 3.3 0 0 1-.787-.113 2.497 2.497 0 0 1-.786-.337 165.95 165.95 0 0 1-3.895-2.696A97.38 97.38 0 0 1 85.06 8.91c-.075-.15-.112-.262-.112-.337-.075-.112-.112-.187-.112-.262 0-.075-.038-.187-.075-.3-.038-.261 0-.486.075-.71.074-.15.15-.338.3-.488.149-.187.261-.337.448-.487.15-.15.338-.262.487-.337.15-.074.337-.112.487-.112h9.774l.674-1.985H84.497l-3.407 11.01h-5.468L80.116.371h-.075ZM103.073 14.901c-.487 0-.899-.15-1.161-.412-.3-.262-.449-.599-.524-.973-.038-.3 0-.6.075-.9l3.145-10.073c.113-.262.262-.524.45-.786.187-.262.412-.487.636-.712.263-.187.525-.374.824-.487.3-.112.637-.187.974-.187h21.159l-1.049 3.52h-17.976l-2.359 7.527h12.471l.674-1.984h-10.935l1.086-3.52h16.402l-2.134 6.815c-.075.262-.225.525-.375.787-.187.262-.412.486-.636.711-.263.187-.525.375-.862.487a2.806 2.806 0 0 1-.973.187h-18.912Z"
      />
      <path
        fill="red"
        d="M153.253 1.682c-.075-.375-.224-.674-.524-.936-.262-.263-.674-.375-1.161-.375h-18.874c-.337 0-.674.075-.974.187-.299.113-.599.3-.861.487s-.449.45-.637.712c-.187.262-.299.524-.412.786l-.973 3.146c-.075.262-.113.524-.038.786.038.225.15.45.262.637.113.187.3.374.562.487a3.338 3.338 0 0 0-1.273.861c-.337.375-.599.786-.712 1.161l-.973 2.996c-.113.3-.113.6-.075.899.075.374.224.711.524.973.3.262.674.412 1.161.412h18.874c.337 0 .674-.075.974-.187.299-.112.599-.3.861-.487s.487-.45.674-.711c.188-.262.3-.525.375-.787l.973-2.958c.113-.3.113-.6.075-.936a1.536 1.536 0 0 0-.824-1.161c.45-.188.862-.412 1.199-.75.337-.336.599-.71.749-1.123l.936-3.146c.15-.3.187-.636.112-.936v-.037Zm-8.238 9.7h-12.471l.637-1.986h12.47l-.636 1.985Zm1.722-5.506h-12.47l.636-1.985h12.508l-.674 1.985Z"
      />
      <path
        fill="#fff"
        d="m159.507 14.901 3.408-11.01h-8.276l1.086-3.52h21.907l-1.048 3.52h-8.164l-3.408 11.01h-5.505ZM9.676 9.396l-.037.15.037-.15ZM28.438 1.72a1.743 1.743 0 0 0-.487-.937c-.262-.262-.636-.412-1.16-.412H9.226c-.337 0-.637.075-.936.187-.3.113-.6.3-.824.487-.262.187-.487.45-.674.712-.188.262-.337.524-.412.786L3.235 12.617c-.112.3-.112.6-.075.899.075.374.225.711.524.973.3.262.674.412 1.161.412h19.773l.562-1.835c0-.15.038-.3.075-.45l.374-1.235H9.04l.338-1.011.262-.824v-.15h.037l1.386-4.456.075-.262.262-.787h16.59l.224-.674.188-.562c.075-.337.112-.636.037-.936ZM9.376 10.37l.262-.824-.262.824Z"
      />
      <path
        fill="#fff"
        d="M11.698 9.396h14.568l1.086-3.52H12.784l-1.086 3.52ZM58.809 9.396l-.037.15.037-.15ZM77.57 1.72a1.744 1.744 0 0 0-.486-.937c-.262-.262-.637-.412-1.16-.412H58.36c-.337 0-.637.075-.937.187-.3.113-.599.3-.824.487-.262.187-.486.45-.674.712-.187.262-.337.524-.411.786l-3.146 10.074c-.113.3-.113.6-.075.899.075.374.225.711.524.973.3.262.674.412 1.161.412h19.773l.562-1.835c0-.15.037-.3.075-.45l.374-1.235h-16.59l.337-1.011.263-.824v-.15h.037l1.386-4.456.075-.262.262-.787h16.59l.224-.674.188-.562c.074-.337.112-.636.037-.936ZM58.509 10.37l.262-.824-.262.824Z"
      />
      <path
        fill="#fff"
        d="M60.831 9.396H75.4l1.086-3.52H61.955l-1.124 3.52ZM182.127 9.396l-.075.15.075-.15ZM200.851 1.72a1.746 1.746 0 0 0-.487-.937c-.262-.262-.636-.412-1.161-.412H181.64c-.337 0-.637.075-.936.187-.3.113-.6.3-.824.487-.262.187-.487.45-.674.712-.188.262-.337.524-.412.786l-3.146 10.074c-.112.3-.112.6-.075.899.075.374.225.711.524.973.3.262.675.412 1.161.412h19.773l.562-1.835c0-.15.038-.3.075-.45l.375-1.235h-16.59l.337-1.011.262-.824v-.15h.037l1.386-4.456.075-.262.262-.787h16.59l.224-.674.188-.562c.075-.337.112-.636.037-.936ZM181.789 10.37l.262-.824-.262.824Z"
      />
      <path
        fill="#fff"
        d="M184.149 9.396h14.568l1.086-3.52h-14.568l-1.086 3.52ZM201.974.596h-.562V.37h1.386v.225h-.562v1.498h-.262V.596Zm1.198-.225h.262l.637.974.637-.974h.262v1.76h-.262V.783l-.637.936-.637-.936v1.348h-.262V.371ZM2.3 21.905h2.583c.3 0 .562-.075.637-.337.112-.337-.075-.375-.375-.375H2.561l-.262.75v-.038Zm.636-1.723h2.546c.263 0 .45-.112.562-.374.112-.263 0-.375-.3-.375H3.199l-.262.749Zm-.787-1.872h4.157c1.161 0 1.61.3 1.273 1.235-.3.824-.636.974-1.086 1.086.6.113.712.45.45 1.161-.375 1.049-1.086 1.236-1.91 1.236H.427l1.722-4.718ZM13.683 23.028l1.236-3.37h-.037l-3.108 3.37h-1.087l-.674-3.37-1.235 3.37H7.354l1.723-4.718h2.21l.561 3.033 2.734-3.033h2.21l-1.723 4.718h-1.386ZM16.53 21.492h1.46c-.187.487 0 .525.412.525h1.76c.3 0 .637 0 .75-.412.15-.412 0-.45-1.873-.45-1.872 0-2.322-.262-1.91-1.423.3-.861.637-1.498 2.472-1.498h2.022c1.685 0 1.61.562 1.31 1.386v.15h-1.497c.112-.337.15-.487-.524-.487h-1.61c-.338 0-.6.112-.675.374-.15.412 0 .412 1.573.412 2.247 0 2.734.113 2.21 1.498-.45 1.274-.974 1.46-2.884 1.46h-1.76c-1.31 0-1.76-.261-1.386-1.272l.113-.337.037.074ZM27.053 19.957c.486-1.386 1.385-1.723 2.696-1.723h1.685c2.06 0 2.172.45 1.648 1.798h-1.46v-.112c.187-.338-.038-.45-.487-.45h-1.573c-.75 0-1.049.375-1.236.936l-.187.525c-.262.674-.188.936.486.936h1.536c.636 0 .861-.075 1.086-.637h1.46l-.15.45c-.299.786-.786 1.423-2.246 1.423h-2.322c-1.31 0-1.948-.337-1.46-1.723l.524-1.423ZM35.104 20.93c-.262.675-.187.937.487.937h1.835c.674 0 .936-.262 1.16-.936l.188-.525c.224-.599.187-.936-.562-.936h-1.685c-.75 0-1.049.375-1.236.936l-.187.525Zm-1.124-.973c.487-1.386 1.386-1.723 2.697-1.723h2.322c1.31 0 1.947.337 1.46 1.723l-.524 1.423c-.487 1.386-1.386 1.723-2.697 1.723h-2.321c-1.311 0-1.948-.337-1.46-1.723l.523-1.423ZM44.39 23.028l-1.46-3.408h-.038l-1.236 3.408h-1.423l1.686-4.718h2.247l1.46 3.445h.038l1.235-3.445h1.46l-1.722 4.718H44.39ZM49.297 23.028l1.31-3.52h-2.06l.45-1.198h5.505l-.412 1.198h-2.06l-1.273 3.52h-1.46ZM55.738 20.63h2.397c.374 0 .599-.149.711-.486l.075-.15c.15-.412 0-.487-.487-.487h-2.247l-.412 1.161-.037-.037Zm-.6-2.321h4.382c1.124 0 1.199.562.899 1.386l-.112.3c-.225.636-.525 1.01-1.236 1.16.412.075.674.262.412 1.049l-.3.786h-1.46l.224-.562c.188-.486.113-.674-.337-.674h-2.284l-.45 1.236h-1.46l1.723-4.718v.037ZM62.33 20.93c-.263.675-.188.937.486.937h1.835c.674 0 .937-.262 1.161-.936l.187-.525c.225-.599.188-.936-.561-.936h-1.686c-.748 0-1.048.375-1.235.936l-.188.525Zm-1.124-.973c.487-1.386 1.386-1.723 2.696-1.723h2.322c1.31 0 1.947.337 1.46 1.723l-.524 1.423c-.486 1.386-1.385 1.723-2.696 1.723h-2.322c-1.31 0-1.947-.337-1.46-1.723l.524-1.423ZM67.422 23.028l1.722-4.718h1.461l-1.273 3.52h3.22l-.412 1.198h-4.718ZM73.226 21.492h1.46c-.187.487 0 .525.413.525h1.76c.3 0 .636 0 .749-.412.15-.412 0-.45-1.873-.45-1.872 0-2.322-.262-1.91-1.423.3-.861.637-1.498 2.472-1.498h2.022c1.685 0 1.61.562 1.311 1.386v.15h-1.498c.112-.337.15-.487-.524-.487h-1.61c-.338 0-.6.112-.675.374-.15.412 0 .412 1.573.412 2.247 0 2.734.113 2.21 1.498-.45 1.274-.974 1.46-2.884 1.46h-1.76c-1.31 0-1.76-.261-1.386-1.272l.113-.337.037.074ZM82.738 23.028l1.723-4.718h4.906l-.412 1.123h-3.483l-.3.899h3.296l-.374 1.086H84.76l-.599 1.61h-1.423ZM90.677 20.93c-.262.675-.187.937.487.937h1.835c.674 0 .936-.262 1.16-.936l.188-.525c.225-.599.187-.936-.562-.936H92.1c-.749 0-1.048.375-1.236.936l-.187.525Zm-1.123-.973c.486-1.386 1.385-1.723 2.696-1.723h2.322c1.31 0 1.947.337 1.46 1.723l-.524 1.423c-.487 1.386-1.386 1.723-2.696 1.723H90.49c-1.31 0-1.947-.337-1.46-1.723l.524-1.423ZM98.092 20.63h2.397c.375 0 .599-.149.712-.486l.074-.15c.15-.412 0-.487-.486-.487h-2.247l-.412 1.161-.038-.037Zm-.599-2.321h4.382c1.123 0 1.198.562.898 1.386l-.112.3c-.225.636-.524 1.01-1.236 1.16.412.075.674.262.412 1.049l-.299.786h-1.461l.225-.562c.187-.486.112-.674-.337-.674H97.68l-.449 1.236h-1.46l1.722-4.718v.037ZM105.769 23.028l1.722-4.718h5.131l-.375 1.086h-3.707l-.3.786h3.52l-.337.974h-3.52l-.299.749h3.819l-.412 1.123h-5.242ZM116.067 23.028l-1.46-3.408h-.038l-1.235 3.408h-1.461l1.723-4.718h2.247l1.46 3.445h.038l1.235-3.445h1.461l-1.723 4.718h-2.247ZM119.287 23.028l1.723-4.718h5.168l-.412 1.086h-3.708l-.299.786h3.52l-.337.974h-3.52l-.262.749h3.782l-.412 1.123h-5.243ZM127.713 20.63h2.397c.375 0 .599-.149.712-.486l.075-.15c.149-.412 0-.487-.487-.487h-2.247l-.412 1.161-.038-.037Zm-.599-2.321h4.382c1.123 0 1.198.562.899 1.386l-.113.3c-.224.636-.524 1.01-1.236 1.16.412.075.674.262.412 1.049l-.299.786h-1.461l.225-.562c.187-.486.112-.674-.337-.674h-2.285l-.449 1.236h-1.46l1.722-4.718v.037ZM133.181 19.957c.487-1.386 1.386-1.723 2.697-1.723h2.172c1.647 0 1.647.6 1.31 1.498v.15h-1.46c.187-.487-.075-.524-.525-.524h-1.572c-.712 0-.974.187-1.274.973l-.224.6c-.3.824-.188.973.561.973h1.536c.374 0 .786-.075.936-.524v-.15h-1.76l.374-.973h3.258l-.486 1.348c-.487 1.348-1.236 1.423-2.846 1.423h-1.723c-1.311 0-1.947-.337-1.461-1.723l.525-1.423-.038.075ZM141.27 23.028l.599-1.648-1.498-3.07h1.723l.899 1.947 2.284-1.947h1.76l-3.745 3.07-.599 1.648h-1.423ZM149.546 21.492h1.46c-.187.487 0 .525.412.525h1.76c.3 0 .637 0 .749-.412.15-.412 0-.45-1.872-.45-1.873 0-2.322-.262-1.91-1.423.299-.861.636-1.498 2.471-1.498h2.023c1.685 0 1.61.562 1.31 1.386v.15h-1.498c.113-.337.15-.487-.524-.487h-1.61c-.337 0-.599.112-.674.374-.15.412 0 .412 1.573.412 2.247 0 2.733.113 2.209 1.498-.449 1.274-.974 1.46-2.884 1.46h-1.76c-1.31 0-1.76-.261-1.385-1.272l.112-.337.038.074ZM157.522 23.028l1.311-3.52h-2.06l.45-1.198h5.505l-.45 1.198h-2.022l-1.273 3.52h-1.461ZM163.776 20.93c-.262.675-.188.937.487.937h1.835c.674 0 .936-.262 1.16-.936l.188-.525c.224-.599.187-.936-.562-.936h-1.685c-.749 0-1.049.375-1.236.936l-.187.525Zm-1.124-.973c.487-1.386 1.386-1.723 2.697-1.723h2.321c1.311 0 1.948.337 1.461 1.723l-.524 1.423c-.487 1.386-1.386 1.723-2.697 1.723h-2.322c-1.31 0-1.947-.337-1.46-1.723l.524-1.423ZM171.228 20.63h2.397c.375 0 .599-.149.712-.486l.075-.15c.149-.412 0-.487-.487-.487h-2.247l-.412 1.161-.038-.037Zm-.636-2.321h4.381c1.124 0 1.199.562.899 1.386l-.112.3c-.225.636-.525 1.01-1.236 1.16.412.075.674.262.412 1.049l-.3.786h-1.46l.224-.562c.188-.486.113-.674-.337-.674h-2.284l-.449 1.236h-1.461l1.723-4.718v.037ZM178.456 21.193h1.835l-.3-1.76-1.572 1.76h.037Zm2.172 1.835-.15-.824h-2.921l-.711.824h-1.611l4.27-4.718h1.872l.861 4.718h-1.61ZM183.737 19.957c.487-1.386 1.385-1.723 2.696-1.723h2.172c1.648 0 1.648.6 1.311 1.498v.15h-1.461c.188-.487-.074-.524-.524-.524h-1.573c-.711 0-.973.187-1.273.973l-.225.6c-.299.824-.187.973.562.973h1.535c.375 0 .787-.075.937-.524v-.15h-1.76l.374-.973h3.258l-.487 1.348c-.487 1.348-1.236 1.423-2.846 1.423h-1.722c-1.311 0-1.948-.337-1.461-1.723l.524-1.423-.037.075ZM189.653 23.028l1.723-4.718h5.168l-.412 1.086h-3.707l-.263.786h3.521l-.375.974h-3.52l-.262.749h3.782l-.412 1.123h-5.243Z"
      />
    </g>
  </svg>