<svg
    xmlns="http://www.w3.org/2000/svg"
    fill="none"
    viewBox="0 0 195 42"
    {...props}
  >
    <g clipPath="url(#a)">
      <path
        fill="red"
        d="M57.15 37.83c.59-1.6 1.42-2.38 3.14-2.38h3.3c1.56 0 1.72.73 1.41 1.58l-.2.55h-.75l.1-.3c.4-1.07-.25-1.13-1.04-1.13h-3c-.82 0-1.57.25-1.98 1.36l-.87 2.39c-.4 1.1.18 1.35 1 1.35h3.02c1.16 0 1.58-.24 1.9-1.1l.14-.4h.81l-.15.43c-.42 1.15-1.02 1.78-2.8 1.78h-3.25c-1.73 0-1.99-.78-1.4-2.38l.63-1.75Zm19.87-.33c.4-1.1-.18-1.35-1-1.35h-3.5c-.82 0-1.58.25-1.98 1.36l-.87 2.39c-.4 1.1.17 1.35 1 1.35h3.5c.82 0 1.57-.24 1.98-1.35l.87-2.4Zm-7.46.33c.59-1.6 1.42-2.38 3.14-2.38h3.66c1.73 0 1.99.77 1.4 2.38l-.63 1.74c-.58 1.61-1.41 2.38-3.13 2.38h-3.67c-1.72 0-1.98-.77-1.4-2.38l.63-1.74Zm14.03-2.31h1.28l3.79 5.59 2.04-5.59h.86l-2.32 6.36h-1.28l-3.8-5.59-2.03 5.6h-.86l2.32-6.37Zm15.38.7h-3.21l.25-.7h7.3l-.26.7h-3.22l-2.06 5.66h-.86l2.06-5.66Zm12.64 2.45c.96 0 1.46-.26 1.7-.93l.2-.58c.27-.7.04-.94-1.22-.94h-3.92l-.89 2.45h4.13Zm-3.84-3.15h5.08c1.84 0 1.91.6 1.48 1.8l-.2.52c-.32.9-.92 1.14-1.6 1.2v.02c.81.16.86.62.64 1.2l-.59 1.62h-.8l.5-1.4c.37-.99-.07-1.11-.85-1.11h-4.2l-.92 2.51h-.86l2.32-6.36Zm18.69 1.98c.4-1.1-.18-1.35-1-1.35h-3.5c-.82 0-1.58.25-1.98 1.36l-.87 2.39c-.4 1.1.17 1.35 1 1.35h3.5c.82 0 1.57-.24 1.98-1.35l.87-2.4Zm-7.46.33c.58-1.6 1.41-2.38 3.13-2.38h3.67c1.72 0 1.98.77 1.4 2.38l-.63 1.74c-.59 1.61-1.41 2.38-3.14 2.38h-3.66c-1.73 0-1.99-.77-1.4-2.38l.63-1.74Zm14.07-2.31h.87l-2.06 5.66h4.94l-.26.7h-5.8l2.31-6.36Zm8.5 4.36h.81l-.16.45c-.23.62 0 .92 1.07.92h2.67c1.25 0 1.71-.26 2.05-1.17.29-.8.04-1-1.03-1h-1.63c-2.63 0-3.43-.17-2.82-1.85.53-1.45 1.5-1.78 3.28-1.78h1.86c2.13 0 2.47.55 2.06 1.68l-.08.22h-.81c.35-1.01.3-1.2-1.95-1.2h-.91c-1.66 0-2.28.1-2.67 1.14-.27.76-.13 1.01 1.22 1.01h2.54c1.68 0 2.21.48 1.82 1.56l-.16.42c-.56 1.56-1.89 1.68-3.16 1.68h-2.4c-1.25 0-2.28-.22-1.77-1.61l.16-.47h.01ZM106.68 9.25A161.49 161.49 0 0 0 96 4.77C85.64.87 74.35.47 63.38 1.14c-11.75.72-23.32 3.82-34.6 7-4.67 1.32-9.3 2.76-13.94 4.14-.44.13-1.94.26-.17-.04-.8.14-1.6.15-2.41.17-1.34.03-2.68-.2-3.97-.52-1.32-.32-2.7-.87-3.82-1.66-.3-.22-1.34.21-2.34.63L0 11.43c3.63 4.98 9.2 6.17 15.03 6.29 1.5.03 3-1.22 4.47-1.2-3.94-.08-7.77-.65-10.95-2.56 4.38.04 8.96-1.29 12.87-2.47C34.19 7.62 47.1 3.96 60.49 3.27 71 2.73 81.62 2.3 91.56 5.97c3.48 1.28 6.9 2.72 10.26 4.3 3.41 1.58 7.4 3.9 11.2 4.24 1.46.13 3.04-1.33 4.47-1.2-3.67-.33-7.5-2.54-10.8-4.06h-.01Z"
      />
      <path
        fill="#fff"
        d="m193.18 15.52 1.53-4.02h-5.32l-1.53 4.02h5.32Zm-147.11.98H67.9v.08c-1.96 1.8-3.8 2.7-5.55 2.7h-7.22c-1.01 0-1.64.38-1.9 1.16l-.43 1.32h11.38v.07c-2.19 1.9-3.99 2.85-5.4 2.85h-6.93a6.05 6.05 0 0 0-.58 1.68v.07c.05.44.32.66.8.66h7.59c2.17 0 3.85.9 5.03 2.7v.15h-14.3c-3.3 0-5.3-.66-5.98-1.97l-.08-.51c1.7-5.55 2.6-8.64 2.7-9.27 0-.66-.32-1.17-.95-1.54v-.14Z"
      />
      <path
        fill="#fff"
        d="M66.72 16.5h5.55c1.65 0 2.48.51 2.48 1.53v.3c0 .31-.7 2.53-2.12 6.64-.24.8-.36 1.3-.36 1.53.14.34.36.5.66.5h7c.94 0 1.62-1.04 2.05-3.13 1.07-3 1.6-4.76 1.6-5.26v-.07c0-.86-.41-1.5-1.24-1.9v-.14h5.98c.99 0 1.65.43 1.97 1.3v.67c-1.7 5.63-2.74 8.72-3.13 9.27-1.21 1.46-4.22 2.19-9.05 2.19h-5.62c-4.77 0-7.15-.83-7.15-2.49 0-.15.9-3.02 2.7-8.6v-.6c0-.64-.44-1.17-1.32-1.6v-.14Zm23.79 0h22.11v.08a8.86 8.86 0 0 1-6.78 2.77l-3.65 10.58h-6.35l-.15-.07 3.58-10.51h-.15c-3.72 0-6.59-.92-8.6-2.77v-.08Z"
      />
      <path
        fill="#fff"
        d="M111.77 16.5H133c1.36 0 2.46.66 3.28 1.97.1.47.15.83.15 1.1 0 .86-.37 1.9-1.1 3.14-1.49 1.31-4 1.97-7.51 1.97v.07c1.82 1.1 4.42 3.3 7.8 6.57a57.41 57.41 0 0 1 2.12 2.55c.2.25.3.4.3.44h-.08c-8.56-5.07-15-8.28-19.34-9.63h-1.02c-.1 0-.56 1.31-1.38 3.94a4.5 4.5 0 0 1-.59 1.31h-6.27l-.15-.07c1.4-4 2.65-7.71 3.72-11.17v-.43c0-.5-.39-1.06-1.17-1.68v-.08Zm6.86 5.26h10.65c.34-1.02.5-1.6.5-1.76v-.21c0-.34-.16-.51-.5-.51h-8.32c-1.01 0-1.64.38-1.9 1.16l-.43 1.32Z"
      />
      <path
        fill="#fff"
        d="M140.28 16.5h19.56c1.4 0 2.11.61 2.11 1.83v.07c0 .47-.97 3.54-2.91 9.2-1.18 1.55-3.98 2.33-8.4 2.33h-9.56c-3.3 0-5.29-.66-5.98-1.97l-.07-.5c1.94-6.36 3.01-9.76 3.2-10.22.47-.49 1.15-.73 2.05-.73Zm1.53 10.3h10.36c.54 0 1.02-.98 1.46-2.92.1-.16.56-1.6 1.39-4.3h-10.29c-.54 0-.92.65-1.17 1.96-.05 0-.63 1.76-1.75 5.26ZM45.76 16.5h-8.6v.15c.72.45 1.09.91 1.09 1.39v.73c0 .1-.56 1.86-1.68 5.25l-4.71-7.52h-11.3v.15c.73.45 1.1.91 1.1 1.39v.73c0 .15-1.22 3.87-3.65 11.16h6.57l3.58-10.35 6.44 10.35h6.56l4.3-12.6a3 3 0 0 1 .83-.68v-.15h-.54Z"
      />
      <path
        fill="#fff"
        d="m177.87 25.15.42-1.21-4.66-7.44h-11.3v.15c.74.45 1.1.91 1.1 1.39v.73c0 .15-1.21 3.87-3.65 11.16h6.57l3.58-10.35 6.44 10.35h6.57l1.63-4.78h-6.7Zm9.99-9.63h-8.6v.15c.72.45 1.09.91 1.09 1.39v.73a176.01 176.01 0 0 1-.68 2.17h6.67l1.18-3.46.33-.98Z"
      />
      <path fill="#fff" d="m191.36 25.15 1.79-5.2h-6.82l-1.78 5.2h6.81Z" />
    </g>
    <defs>
      <clipPath id="a">
        <path fill="#fff" d="M0 .87h194.71v41.08H0z" />
      </clipPath>
    </defs>
  </svg>