  <svg
    xmlns="http://www.w3.org/2000/svg"
    width={180}
    height={33}
    fill="none"
    {...props}
  >
    <g opacity={0.5}>
      <path
        fill="#fff"
        d="M178.009 9.819h-.332v-.133h.798v.133h-.333v.864h-.133v-.864Zm.665-.133h.166l.366.565.366-.565h.166v.997h-.133v-.765l-.366.532-.366-.532v.765h-.132v-.997h-.067ZM32.006 20.555H48.23l-1.064 3.458H27.85c-.499 0-.898-.133-1.163-.4-.266-.265-.466-.564-.5-.963-.032-.266 0-.565.067-.898l3.757-12.1h5.385l-3.39 10.87v.034ZM89.816 23.315h-.066c-.233.133-.499.3-.831.465-.333.167-.599.266-.798.266h-4.188c-.233 0-.466-.066-.699-.2a2.819 2.819 0 0 1-.631-.465 8.61 8.61 0 0 1-.532-.598c-.166-.233-.3-.399-.399-.565l-5.817-12.5h4.986l4.92 10.672s0 .066.066.1c.034.033.1.066.1.1 0 0 .066-.034.1-.067.033 0 .1-.067.166-.1.033 0 .1-.067.1-.067s.066 0 .066-.033L97.961 9.72h6.549L89.85 23.315h-.034ZM134.462 24.013l3.357-10.87h-8.177l1.063-3.457h21.608l-1.03 3.457h-8.045l-3.358 10.87h-5.418ZM154.141 9.686h20.81c.498 0 .897.133 1.163.399.266.265.432.565.499.93.066.3 0 .632-.1.931l-1.429 4.521c-.1.266-.233.532-.399.798a3.154 3.154 0 0 1-.632.698 3.44 3.44 0 0 1-.831.499c-.299.133-.631.2-.931.2h-5.784c.333.232.665.465 1.031.697.365.233.731.466 1.097.632.365.2.731.332 1.063.465.333.1.665.166.931.166h4.122l-1.063 3.458h-5.519a2.31 2.31 0 0 1-.764-.133c-.299-.1-.565-.2-.765-.333a109.243 109.243 0 0 1-3.856-2.66 105.716 105.716 0 0 1-3.69-2.758c-.066-.167-.1-.266-.1-.333a1.034 1.034 0 0 1-.133-.266c0-.066-.033-.166-.066-.299-.033-.233 0-.465.066-.698.067-.166.167-.332.3-.499.133-.166.265-.332.432-.465.166-.133.332-.266.498-.332a.941.941 0 0 1 .499-.133h9.64l.665-1.962h-12.333l-3.357 10.87h-5.386l4.422-14.327-.1-.066Z"
      />
      <path
        fill="red"
        d="m86.957 16.8 7.147-9.442h-6.05c0-.033 2.26-6.781 2.26-6.781.1-.233-.232-.366-.365-.166-.865 1.296.133-.233-5.718 8.61-.266.399 0 .897.499.897h4.554l-2.66 6.682c-.1.2.2.399.333.2ZM128.311 10.982a1.706 1.706 0 0 0-.499-.931c-.266-.266-.664-.4-1.163-.4h-18.682a2.39 2.39 0 0 0-.965.2c-.299.133-.598.3-.831.499a3.17 3.17 0 0 0-.631.698 4.498 4.498 0 0 0-.399.798l-.964 3.091c-.067.266-.1.532-.033.798.033.233.133.432.266.632s.299.366.565.465c-.499.2-.931.466-1.264.831a3.299 3.299 0 0 0-.698 1.164l-.964 2.958c-.099.3-.133.599-.066.898.066.366.233.698.498.964.266.266.665.399 1.164.399h18.682c.333 0 .665-.067.964-.2.3-.133.599-.299.831-.498.266-.2.466-.432.665-.698.167-.266.299-.532.399-.798l.964-2.925c.1-.3.133-.599.067-.898-.067-.499-.366-.864-.831-1.13.465-.166.831-.432 1.163-.765.333-.332.599-.698.765-1.097l.931-3.125c.133-.299.166-.631.132-.93h-.066Zm-8.178 9.573h-12.366l.632-1.994h12.366l-.632 1.994Zm1.696-5.451h-12.333l.631-1.995h12.367l-.665 1.995Z"
      />
      <path
        fill="#fff"
        d="m56.007 18.628-.033.133.033-.133ZM74.557 11.015a1.904 1.904 0 0 0-.466-.93c-.233-.266-.631-.4-1.13-.4H55.575a2.23 2.23 0 0 0-.93.2c-.3.133-.566.3-.832.499-.233.2-.465.432-.665.698a3.14 3.14 0 0 0-.432.798l-3.125 9.972c-.1.3-.133.599-.066.898.066.366.233.698.498.964.266.266.665.399 1.164.399h19.58l.532-1.795c0-.133.033-.3.1-.432l.398-1.23H55.376l.299-.998.266-.83v-.134h.033l1.396-4.421.067-.266.232-.798h16.422l.2-.698.166-.565c.066-.332.1-.632.033-.897l.067-.034ZM55.707 19.591l.266-.83-.266.83Z"
      />
      <path
        fill="#fff"
        d="M58.035 18.628H72.43l1.097-3.49H59.1l-1.064 3.49ZM9.037 18.627l-.033.133.033-.133ZM27.62 11.015a1.904 1.904 0 0 0-.466-.93c-.233-.266-.632-.4-1.13-.4H8.636a2.23 2.23 0 0 0-.93.2c-.3.133-.565.3-.831.499-.233.2-.466.432-.665.698-.2.266-.333.532-.432.798l-3.125 9.972c-.1.3-.133.599-.067.898.067.366.233.698.499.964s.665.399 1.163.399h19.58l.532-1.795c0-.133.034-.3.1-.432l.399-1.23H8.438l.3-.998.265-.83v-.134h.033l1.397-4.421.066-.266.233-.798h16.422l.2-.698.165-.565c.067-.332.1-.632.034-.897l.066-.034ZM8.737 19.591l.266-.83-.266.83Z"
      />
      <path
        fill="#fff"
        d="M11.063 18.627h14.395l1.097-3.49H12.16l-1.098 3.49ZM2.322 31.36h2.692c.333 0 .565-.066.665-.365.133-.332-.066-.399-.399-.399H2.588l-.266.765Zm.664-1.761h2.66c.266 0 .465-.1.565-.366.1-.299 0-.399-.3-.399H3.253l-.266.765Zm-.797-1.961H6.51c1.197 0 1.662.332 1.33 1.296-.3.831-.665.997-1.13 1.13.631.1.731.466.465 1.197-.399 1.064-1.097 1.297-1.961 1.297H.427l1.795-4.92h-.033ZM10.532 30.63h1.928l-.299-1.862-1.629 1.861Zm2.26 1.928-.165-.865H9.568l-.764.865H7.108l4.455-4.92h1.961l.898 4.92H12.76h.033ZM16.25 32.558l1.33-3.69h-2.095l.433-1.23h5.75l-.465 1.23H19.11l-1.363 3.69H16.25ZM22.3 32.558l1.33-3.69h-2.094l.432-1.23h5.751l-.465 1.23H25.16l-1.363 3.69H22.3ZM26.588 32.558l1.795-4.92h5.352l-.399 1.13h-3.89l-.265.798h3.656l-.365 1.03h-3.657l-.299.765h3.956l-.432 1.197h-5.452ZM35.365 30.064h2.493c.4 0 .632-.166.732-.532l.066-.166c.166-.432 0-.532-.498-.532h-2.36l-.433 1.197v.033Zm-.632-2.427h4.555c1.163 0 1.263.565.93 1.463l-.1.3c-.232.664-.531 1.03-1.296 1.196.432.1.732.3.432 1.097l-.299.831H37.46l.2-.598c.2-.532.1-.698-.366-.698h-2.36l-.465 1.263h-1.496l1.795-4.92-.034.066ZM42.147 32.558l.631-1.729-1.562-3.191h1.795l.93 1.994 2.394-1.994h1.828l-3.889 3.191-.632 1.729h-1.495ZM53.183 30.63h1.928l-.3-1.862-1.628 1.861Zm2.26 1.928-.166-.865H52.22l-.765.865H49.76l4.454-4.92h1.962l.897 4.92H55.41h.033ZM57.67 32.558l1.796-4.92h1.496l-1.33 3.656h3.391l-.465 1.264H57.67ZM64.253 29.366c.532-1.43 1.462-1.762 2.825-1.762h2.26c1.696 0 1.73.632 1.364 1.562l-.067.167H69.14c.167-.499-.066-.566-.565-.566h-1.629c-.764 0-1.03.2-1.33 1.031l-.232.598c-.3.831-.166 1.03.598 1.03h1.596c.399 0 .798-.066.997-.531l.067-.133h-1.862l.366-1.03h3.39l-.498 1.396c-.499 1.396-1.263 1.496-2.959 1.496H65.25c-1.363 0-2.028-.333-1.53-1.762l.533-1.463v-.033ZM72.663 30.363c-.266.698-.2.997.499.997h1.928c.698 0 .964-.265 1.23-.997l.2-.532c.232-.598.199-.997-.599-.997H74.16c-.798 0-1.064.366-1.296.997l-.2.532Zm-1.196-.997c.532-1.43 1.462-1.762 2.825-1.762h2.427c1.363 0 2.028.332 1.53 1.762l-.533 1.462c-.532 1.43-1.462 1.762-2.825 1.762h-2.427c-1.363 0-2.028-.332-1.53-1.762l.533-1.462ZM80.375 30.064h2.493c.399 0 .632-.166.732-.532l.066-.166c.166-.432 0-.532-.499-.532h-2.36l-.432 1.197v.033Zm-.632-2.427h4.555c1.163 0 1.263.565.93 1.463l-.1.3c-.232.664-.531 1.03-1.296 1.196.432.1.732.3.432 1.097l-.299.831H82.47l.2-.598c.2-.532.1-.698-.366-.698h-2.36l-.466 1.263h-1.496l1.796-4.92-.034.066ZM86.89 27.638h1.497l-1.795 4.92h-1.496l1.795-4.92ZM89.451 32.558l1.363-3.69h-2.127l.432-1.23h5.75l-.431 1.23H92.31l-1.33 3.69h-1.529ZM98.427 32.558l.698-1.862h-3.192l-.665 1.862H93.74l1.795-4.92h1.496L96.4 29.4h3.191l.632-1.762h1.495l-1.761 4.92h-1.53ZM107.535 32.558l1.297-3.524h-.034l-3.257 3.524h-1.131l-.698-3.524-1.296 3.524h-1.463l1.795-4.92h2.327l.532 3.158 2.859-3.158h2.327l-1.795 4.92h-1.463ZM113.884 30.928h1.496c-.2.532 0 .565.432.565h1.862c.332 0 .664-.033.797-.398.167-.433 0-.466-1.961-.466s-2.427-.266-1.994-1.496c.332-.897.664-1.562 2.559-1.562h2.095c1.728 0 1.695.598 1.362 1.462l-.066.167h-1.496c.133-.366.133-.499-.532-.499h-1.662c-.332 0-.598.1-.698.366-.166.432 0 .432 1.629.432 2.36 0 2.825.133 2.327 1.562-.466 1.33-.997 1.53-3.025 1.53h-1.829c-1.363 0-1.828-.267-1.429-1.33l.133-.333ZM122.295 27.638h1.496l-1.795 4.92H120.5l1.795-4.92ZM129.674 32.558l1.296-3.524-3.291 3.524h-1.097l-.698-3.524h-.033l-1.263 3.524h-1.463l1.762-4.92h2.327l.565 3.158 2.859-3.158h2.294l-1.796 4.92h-1.462ZM133.962 27.638h1.496l-1.031 2.825c-.232.632-.099.865.532.865h1.496c.632 0 .931-.233 1.164-.865l1.03-2.825h1.496l-1.163 3.158c-.432 1.23-1.297 1.795-2.66 1.795h-2.161c-1.396 0-1.795-.599-1.362-1.795l1.163-3.158ZM139.382 32.558l1.795-4.92h1.496l-1.33 3.656h3.391l-.465 1.264h-4.887ZM147.824 30.63h1.928l-.299-1.862-1.629 1.861Zm2.261 1.928-.166-.865h-3.059l-.764.865H144.4l4.455-4.92h1.961l.898 4.92h-1.662.033ZM153.576 32.558l1.33-3.69h-2.128l.466-1.23h5.717l-.432 1.23h-2.127l-1.33 3.69h-1.496ZM160.092 30.363c-.266.698-.199.997.499.997h1.928c.698 0 .964-.265 1.23-.997l.199-.532c.233-.598.2-.997-.598-.997h-1.762c-.798 0-1.064.366-1.297.997l-.199.532Zm-1.197-.997c.532-1.43 1.463-1.762 2.826-1.762h2.427c1.363 0 2.027.332 1.529 1.762l-.532 1.462c-.532 1.43-1.463 1.762-2.826 1.762h-2.426c-1.363 0-2.028-.332-1.53-1.762l.532-1.462ZM167.804 30.064h2.493c.399 0 .631-.166.731-.532l.067-.166c.166-.432 0-.532-.499-.532h-2.36l-.432 1.197v.033Zm-.632-2.427h4.554c1.164 0 1.263.565.931 1.463l-.1.3c-.232.664-.532 1.03-1.296 1.196.432.1.731.3.432 1.097l-.299.831h-1.496l.199-.598c.2-.532.1-.698-.365-.698h-2.361l-.465 1.263h-1.496l1.795-4.92-.033.066Z"
      />
    </g>
  </svg>