  <svg
    xmlns="http://www.w3.org/2000/svg"
    width={191}
    height={32}
    fill="none"
    {...props}
  >
    <g opacity={0.5}>
      <path
        fill="#fff"
        d="m38.729 22.167 2.59-8.268-5.305-2.715-3.432 11.014h-5.585l4.618-14.851h5.398l6.989 3.4 9.329-3.4h7.394l-4.617 14.851h-5.616l3.4-10.92-6.958 2.714-2.59 8.206H38.73v-.03ZM64.626 18.579h12.761l3.526-11.264h5.585L81.91 22.167h-21.56c-.499 0-.905-.125-1.217-.405-.28-.281-.468-.593-.53-.999-.062-.28 0-.593.062-.905l3.9-12.543h5.617L64.657 18.58h-.031ZM90.397 18.579h16.818l-1.092 3.588h-20c-.5 0-.905-.125-1.217-.405-.28-.281-.468-.593-.53-.999-.063-.28 0-.593.062-.905l3.9-12.543h5.585L90.397 18.58Z"
      />
      <path
        fill="red"
        d="M135.858 8.657a1.584 1.584 0 0 0-.531-.936c-.28-.25-.686-.406-1.185-.406H114.86c-.344 0-.687.063-.999.188a3.96 3.96 0 0 0-.873.499c-.25.218-.468.437-.656.717a3.27 3.27 0 0 0-.405.812l-.999 3.213c-.093.281-.093.53-.062.812.062.25.125.468.249.655.125.187.312.374.593.5a3.339 3.339 0 0 0-1.31.873c-.343.374-.593.78-.718 1.217l-.998 3.057c-.094.312-.125.624-.063.905.063.374.25.718.531.998.281.281.686.406 1.217.406h19.282c.343 0 .686-.062.998-.187.312-.125.593-.312.874-.5.25-.218.499-.436.686-.717.188-.28.312-.53.406-.811l.998-3.027c.094-.312.125-.624.063-.936-.094-.499-.375-.905-.843-1.185a3.54 3.54 0 0 0 1.217-.78c.343-.344.593-.718.78-1.155l.968-3.213a1.5 1.5 0 0 0 .124-.968l-.062-.03Zm-8.456 9.922h-12.761l.655-2.06h12.762l-.656 2.06Zm1.748-5.616h-12.762l.656-2.06h12.792l-.686 2.06Z"
      />
      <path
        fill="#fff"
        d="m142.223 22.167 3.494-11.263h-8.487l1.093-3.589h22.371l-1.092 3.589h-8.362l-3.495 11.263h-5.585.063ZM162.629 7.315h21.559c.5 0 .905.125 1.217.406.281.25.468.593.531.936.062.312 0 .655-.125.967l-1.467 4.68c-.093.281-.249.53-.405.812-.187.28-.406.499-.655.717-.25.219-.531.375-.843.5a2.542 2.542 0 0 1-.967.187h-5.991c.344.25.687.499 1.061.749.375.25.749.468 1.123.655.375.187.749.343 1.092.468.344.125.687.187.968.187h4.274l-1.092 3.588h-5.741c-.218 0-.499-.031-.811-.125a3.951 3.951 0 0 1-.811-.343 211.296 211.296 0 0 1-3.994-2.746 200.621 200.621 0 0 1-3.838-2.839c-.062-.156-.093-.28-.125-.374-.062-.094-.093-.188-.124-.25 0-.094-.032-.187-.063-.312-.062-.25 0-.5.063-.718.062-.155.156-.343.312-.499.124-.187.28-.343.436-.468.156-.156.344-.25.5-.343.187-.094.343-.125.499-.125h9.984l.687-2.059H167.09l-3.494 11.264h-5.585l4.586-14.852.032-.063Z"
      />
      <path
        fill="red"
        d="m71.959 17.143 7.363-9.765h-6.24c0-.032 2.34-6.99 2.34-6.99.094-.218-.218-.405-.374-.187-.905 1.342.156-.218-5.897 8.893-.25.405 0 .936.499.936h4.711l-2.746 6.895c-.093.218.188.406.344.218Z"
      />
      <path
        fill="#fff"
        d="M187.777 7.503h-.437v-.188h1.061v.188h-.437v1.154h-.187V7.503Zm.905-.188h.218l.468.75.468-.75h.187v1.342h-.187v-1.03l-.468.75-.468-.75v1.03h-.187V7.315h-.031ZM9.838 16.55l-.031.126.03-.125Z"
      />
      <path
        fill="#fff"
        d="M29.026 8.688a1.878 1.878 0 0 0-.468-.967c-.25-.28-.655-.406-1.186-.406H9.401c-.344 0-.656.063-.968.188a3.754 3.754 0 0 0-.842.499c-.25.218-.468.437-.686.717-.188.281-.344.53-.437.812L3.254 19.827c-.094.312-.125.624-.062.905.062.374.25.718.53.998.28.281.686.406 1.217.406h20.218l.562-1.872c0-.156.031-.28.093-.437l.406-1.28H9.245l.312-1.029.28-.842.063-.156 1.435-4.556.094-.25.25-.81h16.973l.218-.718.187-.562c.094-.343.094-.655.063-.936h-.094Z"
      />
      <path
        fill="#fff"
        d="m9.525 17.55.281-.874-.28.873ZM11.928 16.551H26.81l1.123-3.588H13.05l-1.123 3.588ZM1.132 28.282c.53-1.497 1.529-1.84 2.933-1.84h1.84c2.247 0 2.34.467 1.81 1.934h-1.56l.063-.156c.125-.374-.094-.468-.562-.468H3.94c-.842 0-1.123.374-1.341 1.03l-.188.561c-.28.749-.218 1.03.53 1.03h1.686c.717 0 .936-.063 1.185-.718h1.56l-.187.468c-.312.874-.874 1.529-2.465 1.529H2.193c-1.404 0-2.122-.343-1.591-1.84l.561-1.53h-.03ZM9.4 26.473h1.56l-1.061 2.964c-.25.655-.094.905.562.905h1.56c.655 0 .967-.25 1.217-.905l1.06-2.964h1.56l-1.185 3.307c-.468 1.28-1.342 1.872-2.777 1.872H9.649c-1.435 0-1.872-.593-1.404-1.872l1.186-3.307H9.4ZM15.578 29.936h1.56c-.187.53 0 .593.468.593h1.935c.343 0 .686-.032.842-.437.156-.437 0-.468-2.028-.468s-2.527-.28-2.059-1.529c.343-.936.686-1.654 2.652-1.654h2.184c1.81 0 1.747.624 1.435 1.53l-.062.155h-1.56c.125-.374.156-.53-.562-.53h-1.747c-.343 0-.624.125-.749.405-.156.437 0 .468 1.716.468 2.434 0 2.964.156 2.403 1.623-.5 1.373-1.061 1.591-3.151 1.591H16.95c-1.435 0-1.903-.28-1.497-1.373l.124-.343v-.031ZM24.252 31.59l1.404-3.838H23.44l.468-1.28H29.9l-.468 1.28h-2.215l-1.404 3.838h-1.56ZM31.054 29.312c-.28.749-.218 1.03.53 1.03h1.997c.749 0 .999-.281 1.28-1.03l.187-.562c.218-.624.218-1.03-.624-1.03h-1.841c-.843 0-1.123.375-1.342 1.03l-.187.562Zm-1.248-1.03c.53-1.497 1.529-1.84 2.933-1.84h2.527c1.404 0 2.122.343 1.591 1.84l-.561 1.53c-.53 1.497-1.53 1.84-2.933 1.84h-2.527c-1.405 0-2.122-.343-1.592-1.84l.562-1.53ZM43.44 31.59l1.342-3.682h-.031L41.35 31.59h-1.154l-.75-3.682-1.341 3.682h-1.529l1.872-5.117h2.403l.593 3.307 2.964-3.307h2.402l-1.84 5.117h-1.53ZM47.965 26.473h1.591l-1.872 5.117h-1.56l1.84-5.117ZM48.589 31.59l.437-1.217 4.649-2.652h-3.588l.467-1.248h5.898l-.468 1.248-4.618 2.62v.032h3.744l-.437 1.217H48.59ZM58.511 29.593h1.997l-.312-1.935-1.685 1.935Zm2.34 1.997-.156-.905h-3.182l-.78.905h-1.748l4.65-5.117h2.059l.936 5.117h-1.778ZM65.187 30.373h2.808c.344 0 .593-.063.718-.375.125-.343-.062-.436-.406-.436H65.5l-.28.81h-.032Zm.687-1.872h2.777c.28 0 .499-.094.592-.406.094-.312 0-.405-.312-.405h-2.776l-.281.81Zm-.843-2.028h4.524c1.248 0 1.748.343 1.373 1.341-.312.874-.686 1.061-1.185 1.186.655.093.78.468.499 1.248-.406 1.123-1.155 1.373-2.06 1.373H63.19l1.873-5.117-.032-.031ZM70.679 31.59l1.872-5.117h1.56l-1.373 3.806h3.526l-.468 1.31h-5.117ZM76.451 31.59l1.872-5.117h5.616l-.436 1.185h-4.056l-.281.843h3.806l-.374 1.06H78.76l-.28.812h4.118l-.437 1.217h-5.71ZM86.592 31.59l1.872-5.117h5.616l-.437 1.185h-4.025l-.312.843h3.807l-.375 1.06h-3.806l-.312.812h4.118l-.436 1.217h-5.71ZM93.768 29.936h1.56c-.187.53 0 .593.468.593h1.934c.344 0 .687-.032.843-.437.156-.437 0-.468-2.028-.468s-2.528-.28-2.06-1.529c.344-.936.687-1.654 2.653-1.654h2.184c1.809 0 1.747.624 1.435 1.53l-.063.155h-1.56c.125-.374.156-.53-.561-.53h-1.747c-.344 0-.624.125-.75.405-.155.437 0 .468 1.717.468 2.433 0 2.964.156 2.402 1.623-.499 1.373-1.06 1.591-3.151 1.591H95.14c-1.436 0-1.904-.28-1.498-1.373l.125-.343v-.031ZM101.1 29.936h1.56c-.187.53 0 .593.468.593h1.934c.344 0 .687-.032.843-.437.156-.437 0-.468-2.028-.468s-2.528-.28-2.06-1.529c.344-.936.687-1.654 2.653-1.654h2.184c1.809 0 1.747.624 1.435 1.53l-.063.155h-1.56c.125-.374.156-.53-.561-.53h-1.747c-.344 0-.624.125-.749.405-.156.437 0 .468 1.716.468 2.433 0 2.964.156 2.402 1.623-.499 1.373-1.061 1.591-3.151 1.591h-1.903c-1.436 0-1.904-.28-1.498-1.373l.125-.343v-.031ZM112.52 28.282c.53-1.497 1.529-1.84 2.933-1.84h1.841c2.246 0 2.34.467 1.809 1.934h-1.56l.063-.156c.124-.374-.094-.468-.562-.468h-1.716c-.843 0-1.123.374-1.342 1.03l-.187.561c-.281.749-.218 1.03.53 1.03h1.685c.718 0 .936-.063 1.186-.718h1.56l-.187.468c-.312.874-.874 1.529-2.465 1.529h-2.527c-1.404 0-2.122-.343-1.592-1.84l.562-1.53h-.031ZM121.287 29.312c-.281.749-.218 1.03.531 1.03h1.997c.748 0 .998-.281 1.279-1.03l.187-.562c.218-.624.218-1.03-.624-1.03h-1.841c-.842 0-1.123.375-1.342 1.03l-.187.562Zm-1.248-1.03c.531-1.497 1.529-1.84 2.933-1.84h2.527c1.404 0 2.122.343 1.592 1.84l-.562 1.53c-.53 1.497-1.529 1.84-2.933 1.84h-2.527c-1.404 0-2.122-.343-1.591-1.84l.561-1.53ZM131.365 31.59l-1.623-3.713-1.341 3.713h-1.591l1.872-5.117h2.433l1.592 3.713h.031l1.341-3.713h1.56l-1.84 5.117h-2.434ZM136.701 31.59l1.373-3.838h-2.184l.468-1.28h5.959l-.468 1.28h-2.184l-1.404 3.838h-1.56ZM143.658 29h2.59c.437 0 .655-.156.78-.53l.062-.156c.156-.468 0-.53-.53-.53h-2.465l-.468 1.247.031-.031Zm-.655-2.527h4.742c1.217 0 1.311.593.968 1.529l-.125.312c-.25.686-.562 1.092-1.342 1.248.437.093.749.312.437 1.154l-.312.874h-1.56l.218-.624c.188-.53.094-.718-.374-.718h-2.465l-.499 1.342h-1.56l1.872-5.117ZM150.835 29.312c-.281.749-.218 1.03.531 1.03h1.996c.749 0 .999-.281 1.28-1.03l.187-.562c.218-.624.218-1.03-.624-1.03h-1.841c-.842 0-1.123.375-1.342 1.03l-.187.562Zm-1.248-1.03c.531-1.497 1.529-1.84 2.933-1.84h2.527c1.404 0 2.122.343 1.592 1.84l-.562 1.53c-.53 1.497-1.529 1.84-2.933 1.84h-2.527c-1.404 0-2.122-.343-1.592-1.84l.562-1.53ZM156.357 31.59l1.872-5.117h1.561l-1.373 3.806h3.525l-.468 1.31h-5.117ZM162.13 31.59l1.872-5.117h1.56l-1.373 3.806h3.526l-.468 1.31h-5.117ZM167.901 31.59l1.872-5.117h5.585l-.405 1.185h-4.056l-.281.843h3.806l-.374 1.06h-3.838l-.281.812h4.119l-.437 1.217h-5.71ZM177.075 29h2.59c.437 0 .655-.156.78-.53l.062-.156c.156-.468 0-.53-.53-.53h-2.465l-.468 1.247.031-.031Zm-.655-2.527h4.742c1.217 0 1.311.593.968 1.529l-.125.312c-.25.686-.562 1.092-1.342 1.248.437.093.749.312.437 1.154l-.312.874h-1.56l.218-.624c.188-.53.094-.718-.374-.718h-2.465l-.499 1.342h-1.56l1.872-5.117Z"
      />
    </g>
  </svg>