  <svg
    xmlns="http://www.w3.org/2000/svg"
    fill="none"
    viewBox="0 0 46 25"
    {...props}
  >
    <path
      fill="#fff"
      d="M43.13 5.74 45.1.6h-6.8l-1.96 5.15h6.8ZM23.55 18.05l.54-1.55L18.14 7H3.7v.18c.93.58 1.4 1.17 1.4 1.78v.93c0 .2-1.56 4.96-4.67 14.27h8.4l4.57-13.23 8.24 13.23h8.4l2.09-6.11h-8.58ZM36.33 5.74h-11v.2c.93.57 1.4 1.16 1.4 1.76v.94c0 .05-.13.46-.37 1.22l-.5 1.55h8.53L35.9 7l.43-1.25Z"
    />
    <path fill="#fff" d="m40.81 18.05 2.28-6.64h-8.71l-2.28 6.64h8.71Z" />
  </svg>